<?xml version="1.0" encoding="UTF-8" standalone="no"?>
<!-- Created with Inkscape (http://www.inkscape.org/) -->

<svg
   width="460pt"
   height="315pt"
   viewBox="0 0 162.27776 111.125"
   version="1.1"
   id="svg1"
   xml:space="preserve"
   inkscape:version="1.4.2 (1:1.4.2+202505120738+ebf0e940d0)"
   sodipodi:docname="ratchetorientation.svg"
   xmlns:inkscape="http://www.inkscape.org/namespaces/inkscape"
   xmlns:sodipodi="http://sodipodi.sourceforge.net/DTD/sodipodi-0.dtd"
   xmlns="http://www.w3.org/2000/svg"
   xmlns:svg="http://www.w3.org/2000/svg"
   xmlns:ns18="http://www.iki.fi/pav/software/textext/"><sodipodi:namedview
     id="namedview1"
     pagecolor="#ffffff"
     bordercolor="#000000"
     borderopacity="0.25"
     inkscape:showpageshadow="2"
     inkscape:pageopacity="0.0"
     inkscape:pagecheckerboard="0"
     inkscape:deskcolor="#d1d1d1"
     inkscape:document-units="mm"
     showguides="false"
     inkscape:zoom="1.4414001"
     inkscape:cx="317.05284"
     inkscape:cy="249.41028"
     inkscape:window-width="1920"
     inkscape:window-height="1012"
     inkscape:window-x="0"
     inkscape:window-y="1112"
     inkscape:window-maximized="1"
     inkscape:current-layer="svg1" /><defs
     id="defs1"><marker
       style="overflow:visible"
       id="marker298"
       refX="0"
       refY="0"
       orient="auto-start-reverse"
       inkscape:stockid="Triangle arrow"
       markerWidth="1"
       markerHeight="1"
       viewBox="0 0 1 1"
       inkscape:isstock="true"
       inkscape:collect="always"
       preserveAspectRatio="xMidYMid"
       markerUnits="userSpaceOnUse"><path
         transform="scale(0.5)"
         style="fill:context-stroke;fill-rule:evenodd;stroke:context-stroke;stroke-width:1pt"
         d="M 5.77,0 -2.88,5 V -5 Z"
         id="path298" /></marker><inkscape:path-effect
       effect="spiro"
       id="path-effect297"
       is_visible="true"
       lpeversion="1" /><inkscape:path-effect
       effect="spiro"
       id="path-effect296"
       is_visible="true"
       lpeversion="1" /><inkscape:path-effect
       effect="spiro"
       id="path-effect295"
       is_visible="true"
       lpeversion="1" /><marker
       style="overflow:visible"
       id="Triangle"
       refX="0"
       refY="0"
       orient="auto-start-reverse"
       inkscape:stockid="Triangle arrow"
       markerWidth="1.2"
       markerHeight="1.2"
       viewBox="0 0 1 1"
       inkscape:isstock="true"
       inkscape:collect="always"
       preserveAspectRatio="xMidYMid"
       markerUnits="userSpaceOnUse"><path
         transform="scale(0.5)"
         style="fill:context-stroke;fill-rule:evenodd;stroke:context-stroke;stroke-width:1pt"
         d="M 5.77,0 -2.88,5 V -5 Z"
         id="path135" /></marker><inkscape:path-effect
       effect="spiro"
       id="path-effect33"
       is_visible="true"
       lpeversion="1" /><inkscape:path-effect
       effect="spiro"
       id="path-effect32"
       is_visible="true"
       lpeversion="1" /><inkscape:path-effect
       effect="spiro"
       id="path-effect31"
       is_visible="true"
       lpeversion="1" /><inkscape:path-effect
       effect="spiro"
       id="path-effect24"
       is_visible="true"
       lpeversion="1" /><inkscape:path-effect
       effect="spiro"
       id="path-effect23"
       is_visible="true"
       lpeversion="1" /><inkscape:path-effect
       effect="spiro"
       id="path-effect22"
       is_visible="true"
       lpeversion="1" /><inkscape:path-effect
       effect="spiro"
       id="path-effect21"
       is_visible="true"
       lpeversion="1" /><inkscape:path-effect
       effect="spiro"
       id="path-effect20"
       is_visible="true"
       lpeversion="1" /><inkscape:path-effect
       effect="spiro"
       id="path-effect19"
       is_visible="true"
       lpeversion="1" /><inkscape:path-effect
       effect="spiro"
       id="path-effect18"
       is_visible="true"
       lpeversion="1" /><inkscape:path-effect
       effect="spiro"
       id="path-effect17"
       is_visible="true"
       lpeversion="1" /><inkscape:path-effect
       effect="spiro"
       id="path-effect16"
       is_visible="true"
       lpeversion="1" /><inkscape:path-effect
       effect="spiro"
       id="path-effect15"
       is_visible="true"
       lpeversion="1" /><inkscape:path-effect
       effect="spiro"
       id="path-effect12"
       is_visible="true"
       lpeversion="1" /><inkscape:path-effect
       effect="spiro"
       id="path-effect11"
       is_visible="true"
       lpeversion="1" /><inkscape:path-effect
       effect="spiro"
       id="path-effect10"
       is_visible="true"
       lpeversion="1" /><inkscape:path-effect
       effect="spiro"
       id="path-effect9"
       is_visible="true"
       lpeversion="1" /><inkscape:path-effect
       effect="spiro"
       id="path-effect8"
       is_visible="true"
       lpeversion="1" /><inkscape:path-effect
       effect="spiro"
       id="path-effect7"
       is_visible="true"
       lpeversion="1" /><inkscape:path-effect
       effect="spiro"
       id="path-effect6"
       is_visible="true"
       lpeversion="1" /><inkscape:path-effect
       effect="spiro"
       id="path-effect5"
       is_visible="true"
       lpeversion="1" /><inkscape:path-effect
       effect="spiro"
       id="path-effect4"
       is_visible="true"
       lpeversion="1" /><inkscape:path-effect
       effect="spiro"
       id="path-effect3"
       is_visible="true"
       lpeversion="1" /><inkscape:path-effect
       effect="spiro"
       id="path-effect2"
       is_visible="true"
       lpeversion="1" /><inkscape:path-effect
       effect="spiro"
       id="path-effect1"
       is_visible="true"
       lpeversion="1" /></defs><path
     style="opacity:1;fill:#000000;fill-opacity:1;fill-rule:evenodd;stroke:#be0000;stroke-width:3.315;stroke-dasharray:none;stroke-opacity:1;marker-end:url(#Triangle)"
     d="M 93.765464,38.202595 V 29.103594"
     id="path34"
     inkscape:label="path34" /><path
     style="opacity:1;fill:none;fill-opacity:1;fill-rule:evenodd;stroke:#6671ef;stroke-width:3.3154;stroke-linejoin:round;stroke-dasharray:none;stroke-opacity:1;marker-end:url(#marker298)"
     d="m 96.899567,72.75093 c -1.339762,0.137398 -2.666817,0.398458 -3.958791,0.778778 -1.398355,0.411635 -2.758005,0.964248 -4.02369,1.687353 -0.477533,0.272822 -0.945998,0.573383 -1.329945,0.967151 -0.383947,0.393769 -0.680865,0.8904 -0.755879,1.435232 -0.08513,0.618272 0.123557,1.251962 0.475761,1.767189 0.352203,0.515227 0.839014,0.924223 1.350469,1.281882 1.885628,1.318614 4.200728,2.01218 6.500762,1.947522"
     id="path297"
     inkscape:path-effect="#path-effect297"
     inkscape:original-d="m 96.899567,72.75093 c -1.276331,0.216326 -2.682459,0.562452 -3.958791,0.778778 -1.276334,0.216328 -2.639195,1.081637 -4.02369,1.687353 -1.384499,0.605719 -1.566638,1.666871 -2.085824,2.402383 -0.519187,0.735513 1.393576,1.967433 1.82623,3.049071 0.432655,1.081638 5.310963,1.320171 6.500762,1.947522"
     transform="matrix(1.0848249,0,0,0.99124103,-33.228481,-6.19902)"
     sodipodi:nodetypes="cssssc" /><g
     inkscape:label="Layer 1"
     inkscape:groupmode="layer"
     id="layer1"
     transform="translate(-25.5764, 0)"><g
       id="g34"><path
         style="opacity:1;fill:none;fill-rule:evenodd;stroke:#000000;stroke-width:0.600001;stroke-opacity:1;fill-opacity:1;stroke-linejoin:round;stroke-linecap:round"
         d="m 140.18669,102.02004 c 2.35755,-0.17751 4.66593,-0.97226 6.63308,-2.283696 1.96715,-1.311437 3.5886,-3.136575 4.65921,-5.244503 2.08483,-4.104852 1.93309,-9.264017 -0.38939,-13.239242"
         id="path1"
         inkscape:path-effect="#path-effect1"
         inkscape:original-d="m 140.18669,102.02004 c 3.80736,-2.422871 7.48493,-4.975537 11.29229,-7.528199 3.80736,-2.552663 -0.21633,-8.826162 -0.38939,-13.239242" /><path
         style="opacity:1;fill:none;fill-opacity:1;fill-rule:evenodd;stroke:#000000;stroke-width:0.600001;stroke-opacity:1;stroke-linejoin:round;stroke-linecap:round"
         d="m 151.21938,81.122802 c -5.65801,-2.282649 -10.74227,-5.972118 -14.667,-10.643312 -3.42467,-4.076026 -5.96573,-8.890663 -7.3984,-14.018019"
         id="path2"
         inkscape:path-effect="#path-effect2"
         inkscape:original-d="m 151.21938,81.122802 c -4.97553,-3.417975 -9.82126,-7.09554 -14.667,-10.643312 -4.84573,-3.547768 -4.93226,-9.30208 -7.3984,-14.018019"
         sodipodi:nodetypes="csc" /><path
         style="opacity:1;fill:none;fill-opacity:1;fill-rule:evenodd;stroke:#000000;stroke-width:0.600001;stroke-linejoin:round;stroke-opacity:1;stroke-linecap:round"
         d="m 129.15398,56.461471 c -0.85742,-1.054136 -1.68006,-2.136558 -2.46613,-3.244913 -0.67693,-0.954457 -1.32675,-1.928165 -1.94695,-2.920421 -0.67849,-1.085518 -1.32136,-2.192962 -1.94694,-3.30981 -0.36894,-0.658668 -0.7324,-1.321673 -1.03838,-2.011844 -0.16677,-0.376162 -0.31715,-0.76309 -0.38939,-1.16817 -0.0686,-0.384478 -0.0655,-0.777623 -0.0649,-1.168167 9.6e-4,-0.671301 -0.006,-1.344318 0.0649,-2.011847 0.0459,-0.431548 0.12463,-0.862984 0.1005,-1.2963 -0.0121,-0.216657 -0.0503,-0.433088 -0.12898,-0.635314 -0.0787,-0.202226 -0.1989,-0.390146 -0.3609,-0.534519 -0.19633,-0.174976 -0.4482,-0.280632 -0.7071,-0.326844 -0.2589,-0.04621 -0.5253,-0.03542 -0.78556,0.0024 -0.53378,0.07747 -1.05369,0.270669 -1.49266,0.584084 -0.413,0.294874 -0.74623,0.688342 -1.03838,1.10327 -0.32957,0.468078 -0.61263,0.968888 -0.84367,1.49266 -0.19358,0.438849 -0.35086,0.894501 -0.45429,1.362864 -0.22951,1.039339 -0.19005,2.117342 -0.1298,3.180014 0.0444,0.783066 0.0999,1.568454 0.2596,2.336337 0.11025,0.529935 0.26966,1.048734 0.45428,1.557557 0.21945,0.604821 0.47511,1.197688 0.64899,1.81715 0.26968,0.960743 0.3388,1.97198 0.64898,2.92042 0.1299,0.397185 0.30088,0.779462 0.45429,1.16817 0.093,0.235554 0.17954,0.473631 0.25959,0.713881"
         id="path3"
         inkscape:path-effect="#path-effect3"
         inkscape:original-d="m 129.15398,56.461471 c -0.75714,-0.995106 -1.64409,-2.184908 -2.46613,-3.244913 -0.82204,-1.060003 -1.29796,-1.925315 -1.94695,-2.920421 -0.64898,-0.995105 -1.29796,-2.228172 -1.94694,-3.30981 -0.64899,-1.081638 -0.69225,-1.341231 -1.03838,-2.011844 -0.34612,-0.670616 -0.25959,-0.800412 -0.38939,-1.16817 -0.12979,-0.367757 -0.0433,-0.735512 -0.0649,-1.168167 -0.0216,-0.432655 0.0433,-1.341231 0.0649,-2.011847 0.0216,-0.670615 -0.30285,-1.644089 -0.38938,-2.466133 -0.0865,-0.822045 -0.95185,-0.216326 -1.49266,-0.324491 -0.54082,-0.108164 -1.01674,0.411023 -1.49266,0.584084 -0.47592,0.173061 -0.67062,0.735513 -1.03838,1.10327 -0.36775,0.367758 -0.56245,0.973474 -0.84367,1.49266 -0.28123,0.519187 -0.30286,0.908574 -0.45429,1.362864 -0.15143,0.454287 -0.0865,2.14164 -0.1298,3.180014 -0.0433,1.03837 0.1947,1.579189 0.2596,2.336337 0.0649,0.757144 0.28122,1.016738 0.45428,1.557557 0.17307,0.540818 0.45429,1.189802 0.64899,1.81715 0.19469,0.627351 0.41102,1.968579 0.64898,2.92042 0.23796,0.951842 0.30286,0.757148 0.45429,1.16817 0.15142,0.411023 0.17306,0.47592 0.25959,0.713881"
         sodipodi:nodetypes="cssssssscsssssssssssc" /><path
         style="opacity:1;fill:none;fill-opacity:1;fill-rule:evenodd;stroke:#000000;stroke-width:0.2;stroke-opacity:1;stroke-dasharray:none;stroke-linejoin:round;stroke-linecap:round"
         d="m 118.18618,56.201878 c -0.31493,0.599578 -0.61787,1.205457 -0.90857,1.817151 -0.30368,0.639013 -0.59422,1.284881 -0.84368,1.946947 -0.2374,0.630061 -0.43827,1.278525 -0.51919,1.946947 -0.0937,0.774034 -0.0249,1.557048 0,2.336337 0.0304,0.951757 -0.005,1.905854 0.0649,2.855523 0.0924,1.254648 0.36802,2.48963 0.71388,3.6992 0.34839,1.218413 0.76943,2.417643 1.29797,3.569402 0.27452,0.598207 0.57784,1.183193 0.90857,1.752253"
         id="path4"
         inkscape:path-effect="#path-effect4"
         inkscape:original-d="m 118.18618,56.201878 c -0.25959,0.475919 -0.58408,1.211435 -0.90857,1.817151 -0.3245,0.605715 -0.56246,1.254699 -0.84368,1.946947 -0.28123,0.692247 -0.34613,1.297963 -0.51919,1.946947 -0.17306,0.648983 0,1.557557 0,2.336337 0,0.778779 0.0433,1.903682 0.0649,2.855523 0.0216,0.951841 0.51919,2.509398 0.71388,3.6992 0.1947,1.1898 0.86531,2.379602 1.29797,3.569402 0.43265,1.189802 0.56245,1.124905 0.90857,1.752253" /><path
         style="opacity:1;fill:none;fill-opacity:1;fill-rule:evenodd;stroke:#000000;stroke-width:0.600001;stroke-opacity:1;stroke-linejoin:round;stroke-linecap:round"
         d="m 117.76173,56.963328 c -0.61706,0.04298 -1.23971,0.0051 -1.84699,-0.112467 -0.72674,-0.140654 -1.42637,-0.393512 -2.14164,-0.584086 -0.66439,-0.177017 -1.34178,-0.300156 -2.01185,-0.454287 -0.64952,-0.149403 -1.29253,-0.328015 -1.94694,-0.454287 -0.64312,-0.124094 -1.29495,-0.197188 -1.94695,-0.259593 -0.69213,-0.06625 -1.38541,-0.120589 -2.07674,-0.194696 -0.51779,-0.0555 -1.03996,-0.122139 -1.55756,-0.0649 -0.60728,0.06716 -1.18132,0.301603 -1.75225,0.519186 -0.52591,0.200428 -1.05829,0.389202 -1.55756,0.648981 -0.33319,0.173366 -0.65193,0.379132 -0.925244,0.636763 -0.27331,0.25763 -0.500567,0.569067 -0.632316,0.920797 -0.130641,0.348774 -0.164471,0.727777 -0.147492,1.099828 0.01698,0.372051 0.08326,0.739853 0.147492,1.106712 0.119073,0.680131 0.242678,1.388667 0.64898,1.946947 0.23808,0.327135 0.56217,0.58422 0.91144,0.78845 0.34927,0.204229 0.72505,0.358511 1.10041,0.509514 1.15589,0.464999 2.32193,0.905756 3.5045,1.297966 0.82783,0.274555 1.66755,0.526152 2.53103,0.648981 1.05562,0.150162 2.13632,0.10637 3.18002,0.324493 0.37114,0.07756 0.7369,0.188129 1.11438,0.223727 0.37748,0.0356 0.77818,-0.01118 1.09216,-0.223727 0.20116,-0.136178 0.35576,-0.333381 0.46827,-0.548681 0.1125,-0.215299 0.18511,-0.449121 0.24561,-0.684386 0.12521,-0.486887 0.20118,-0.995023 0.1298,-1.49266 -0.0794,-0.553795 -0.34209,-1.074602 -0.71388,-1.49266 -0.36127,-0.406225 -0.81925,-0.715877 -1.29797,-0.973474 -0.59652,-0.320981 -1.23185,-0.567567 -1.81715,-0.908576 -0.28534,-0.166244 -0.55758,-0.354256 -0.84368,-0.519184 -0.6018,-0.346921 -1.26353,-0.589555 -1.94695,-0.71388"
         id="path5"
         inkscape:path-effect="#path-effect5"
         inkscape:original-d="m 117.76173,56.963328 c -0.61566,0.0058 -1.23133,-0.05335 -1.84699,-0.112467 -0.61566,-0.05912 -1.42776,-0.38939 -2.14164,-0.584086 -0.71388,-0.194693 -1.3845,-0.302858 -2.01185,-0.454287 -0.62735,-0.151429 -1.29796,-0.281225 -1.94694,-0.454287 -0.64899,-0.173064 -1.27633,-0.194696 -1.94695,-0.259593 -0.67061,-0.0649 -1.36286,-0.129797 -2.07674,-0.194696 -0.71389,-0.0649 -1.06001,-0.04326 -1.55756,-0.0649 -0.49755,-0.02164 -1.1898,0.367757 -1.75225,0.519186 -0.56245,0.151429 -0.99511,0.411023 -1.55756,0.648981 -0.56245,0.237961 -1.038373,1.038373 -1.55756,1.55756 -0.519187,0.519184 0.04327,1.49266 0,2.20654 -0.04327,0.71388 0.38939,1.276331 0.64898,1.946947 0.2596,0.670615 1.34123,0.865309 2.01185,1.297964 0.67061,0.432654 2.33633,0.865309 3.5045,1.297966 1.16817,0.432655 1.68736,0.432655 2.53103,0.648981 0.84368,0.216328 2.12001,0.216328 3.18002,0.324493 1.06,0.108161 1.47103,0 2.20654,0 0.73551,0 0.47592,-0.822045 0.71388,-1.233067 0.23796,-0.411022 0.0649,-1.016741 0.1298,-1.49266 0.0649,-0.475922 -0.47592,-0.973474 -0.71388,-1.49266 -0.23797,-0.519187 -0.84368,-0.648984 -1.29797,-0.973474 -0.45429,-0.32449 -1.21143,-0.605716 -1.81715,-0.908576 -0.60572,-0.302858 -0.56245,-0.346123 -0.84368,-0.519184 -0.28122,-0.173064 -1.29796,-0.475922 -1.94695,-0.71388" /><path
         style="opacity:1;fill:none;fill-opacity:1;fill-rule:evenodd;stroke:#000000;stroke-width:0.600001;stroke-opacity:1;stroke-linejoin:round;stroke-linecap:round"
         d="m 113.51351,65.320079 c 0.5454,0.333043 0.98296,0.839698 1.23307,1.427763 0.28433,0.668533 0.32436,1.418052 0.25959,2.141643 -0.0316,0.353405 -0.0877,0.706681 -0.20312,1.042218 -0.11537,0.335538 -0.2922,0.653947 -0.54321,0.904729 -0.32711,0.326816 -0.76595,0.524526 -1.21676,0.627373 -0.45081,0.102847 -0.91678,0.116801 -1.37917,0.118956 -1.42271,0.0066 -2.84682,-0.09459 -4.25084,-0.324491 -1.29814,-0.212566 -2.57549,-0.534295 -3.86144,-0.811228 -1.13395,-0.244198 -2.28782,-0.457673 -3.34226,-0.941025 -0.751407,-0.344444 -1.446599,-0.828246 -1.979399,-1.460209 -0.418728,-0.496661 -0.734625,-1.085784 -0.876125,-1.719805 -0.221509,-0.992517 0.0026,-2.064456 0.55163,-2.920423 0.494831,-0.771413 1.247974,-1.373928 2.109194,-1.687354"
         id="path6"
         inkscape:path-effect="#path-effect6"
         inkscape:original-d="m 113.51351,65.320079 c 0.36775,0.432654 0.80041,0.962659 1.23307,1.427763 0.43265,0.465105 0.16224,1.406128 0.25959,2.141643 0.0973,0.735512 -0.50837,1.297964 -0.74633,1.946947 -0.23796,0.64898 -1.71981,0.497552 -2.59593,0.746329 -0.87613,0.248777 -2.84471,-0.216326 -4.25084,-0.324491 -1.40613,-0.108164 -2.55266,-0.540819 -3.86144,-0.811228 -1.30878,-0.270409 -2.23899,-0.627351 -3.34226,-0.941025 -1.103273,-0.313674 -1.308783,-0.973474 -1.979399,-1.460209 -0.670615,-0.486738 -0.584083,-1.157354 -0.876125,-1.719805 -0.292045,-0.562451 0.411017,-2.055114 0.55163,-2.920423 0.140613,-0.865309 1.362866,-1.005922 2.109194,-1.687354" /><path
         style="opacity:1;fill:none;fill-opacity:1;fill-rule:evenodd;stroke:#000000;stroke-width:0.600001;stroke-opacity:1;stroke-linejoin:round;stroke-linecap:round"
         d="m 113.38025,71.410903 c 0.29043,0.184608 0.52975,0.448754 0.68489,0.755941 0.15638,0.309639 0.22657,0.659039 0.22715,1.005925 8.2e-4,0.488928 -0.13616,0.977068 -0.38939,1.395312 -0.20329,0.335774 -0.47784,0.624115 -0.77878,0.876125 -0.48762,0.408338 -1.06135,0.731309 -1.68736,0.843677 -0.43761,0.07855 -0.88627,0.05268 -1.33041,0.03245 -1.26609,-0.05767 -2.53556,-0.0674 -3.79655,-0.194694 -1.25657,-0.126848 -2.5022,-0.370208 -3.7641,-0.421839 -0.58267,-0.02384 -1.16696,-0.0067 -1.74853,-0.04967 -0.58157,-0.04299 -1.166977,-0.148899 -1.691073,-0.404619 -0.671269,-0.327529 -1.214389,-0.89415 -1.557557,-1.55756 -0.344581,-0.666141 -0.492611,-1.424125 -0.486739,-2.174089 0.006,-0.766145 0.185665,-1.562945 0.684128,-2.144795 0.28896,-0.3373 0.677184,-0.588503 1.10327,-0.71388"
         id="path7"
         inkscape:path-effect="#path-effect7"
         inkscape:original-d="m 113.38025,71.410903 c 0.20666,0.230346 0.44578,0.493144 0.68489,0.755941 0.23912,0.262798 0.15143,0.681432 0.22715,1.005925 0.0757,0.32449 -0.27041,0.930206 -0.38939,1.395312 -0.11898,0.465103 -0.51919,0.5949 -0.77878,0.876125 -0.25959,0.281226 -1.09246,0.551635 -1.68736,0.843677 -0.5949,0.292042 -0.90857,0.01082 -1.33041,0.03245 -0.42184,0.02164 -2.53103,-0.129794 -3.79655,-0.194694 -1.26551,-0.0649 -2.5094,-0.281226 -3.7641,-0.421839 -1.2547,-0.140612 -2.29307,-0.313674 -3.439603,-0.454286 -1.146535,-0.140613 -1.038371,-1.038374 -1.557557,-1.55756 -0.519187,-0.519184 -0.324491,-1.449393 -0.486739,-2.174089 -0.162245,-0.724699 0.511067,-1.484998 0.684128,-2.144795 0.173062,-0.659799 0.680532,-0.409972 1.10327,-0.71388" /><path
         style="opacity:1;fill:none;fill-opacity:1;fill-rule:evenodd;stroke:#000000;stroke-width:0.600001;stroke-opacity:1;stroke-linejoin:round;stroke-linecap:round"
         d="m 110.84969,76.275474 c 0.17088,0.288993 0.27282,0.618438 0.29503,0.953434 0.0218,0.328492 -0.0323,0.659025 -0.1298,0.973474 -0.0936,0.301927 -0.22858,0.593525 -0.42183,0.843676 -0.23575,0.305165 -0.55054,0.539703 -0.87613,0.746332 -0.52477,0.333034 -1.09067,0.604819 -1.68735,0.778777 -0.72659,0.211832 -1.48648,0.276042 -2.23899,0.356941 -0.81381,0.08749 -1.62539,0.1957 -2.43369,0.324491"
         id="path8"
         inkscape:path-effect="#path-effect8"
         inkscape:original-d="m 110.84969,76.275474 c 0.0983,0.361077 0.19669,0.657257 0.29503,0.953434 0.0983,0.29618 -0.10816,0.670616 -0.1298,0.973474 -0.0216,0.302858 -0.25959,0.540818 -0.42183,0.843676 -0.16225,0.302858 -0.60572,0.508371 -0.87613,0.746332 -0.27041,0.237958 -1.11409,0.508368 -1.68735,0.778777 -0.57327,0.270409 -1.50348,0.237961 -2.23899,0.356941 -0.73552,0.118981 -1.60083,0.216326 -2.43369,0.324491" /><path
         style="opacity:1;fill:none;fill-opacity:1;fill-rule:evenodd;stroke:#000000;stroke-width:0.600001;stroke-opacity:1;stroke-linejoin:round;stroke-linecap:round"
         d="m 99.041197,75.314412 c -0.348702,0.170519 -0.645849,0.444809 -0.843674,0.778777 -0.16467,0.277996 -0.259804,0.592009 -0.324493,0.908574 -0.100125,0.489981 -0.130547,0.993657 -0.09735,1.49266 0.03188,0.479133 0.123819,0.959061 0.324491,1.395312 0.323993,0.704347 0.913269,1.256116 1.557557,1.687357 0.771672,0.516505 1.637142,0.884263 2.531032,1.135718 0.83606,0.235188 1.69812,0.370449 2.53104,0.616532 0.81375,0.240421 1.59319,0.584698 2.40123,0.843677 0.82174,0.263371 1.67196,0.437776 2.53103,0.519187"
         id="path9"
         inkscape:path-effect="#path-effect9"
         inkscape:original-d="m 99.041197,75.314412 c -0.227142,0.194694 -0.551632,0.519184 -0.843674,0.778777 -0.292042,0.259594 -0.205513,0.5949 -0.324493,0.908574 -0.118981,0.313677 -0.05408,0.984293 -0.09735,1.49266 -0.04327,0.508371 0.216326,0.930209 0.324491,1.395312 0.108164,0.465106 1.049189,1.135722 1.557557,1.687357 0.508372,0.551635 1.665722,0.746328 2.531032,1.135718 0.86531,0.38939 1.70899,0.411023 2.53104,0.616532 0.82204,0.205513 1.56837,0.562452 2.40123,0.843677 0.83286,0.281226 1.69817,0.346126 2.53103,0.519187" /><path
         style="opacity:1;fill:none;fill-opacity:1;fill-rule:evenodd;stroke:#000000;stroke-width:0.600001;stroke-opacity:1;stroke-linejoin:round;stroke-linecap:round"
         d="m 109.69795,84.646314 c 0.65112,0.508479 1.32319,0.990124 2.01394,1.443302 0.84287,0.552976 1.71397,1.063782 2.61573,1.514369 0.63091,0.315247 1.2763,0.60078 1.92738,0.871911 1.0833,0.451118 2.19203,0.865142 3.34997,1.05547 0.9104,0.149641 1.83817,0.158804 2.7534,0.275339 0.85508,0.108876 1.69593,0.311106 2.52395,0.55068 1.12717,0.326128 2.23871,0.723172 3.39586,0.9178 0.56066,0.0943 1.12941,0.140415 1.69793,0.13767"
         id="path10"
         inkscape:path-effect="#path-effect10"
         inkscape:original-d="m 109.69795,84.646314 c 0.64072,0.511693 1.32733,0.977498 2.01394,1.443302 0.68662,0.465804 1.77442,1.024877 2.61573,1.514369 0.84132,0.489492 1.26963,0.565978 1.92738,0.871911 0.65776,0.305932 2.23332,0.703646 3.34997,1.05547 1.11666,0.351822 1.8356,0.18356 2.7534,0.275339 0.9178,0.09178 1.66734,0.36712 2.52395,0.55068 0.85661,0.18356 2.2792,0.611867 3.39586,0.9178 1.11666,0.305932 1.11666,0.09178 1.69793,0.13767" /><path
         style="opacity:1;fill:none;fill-opacity:1;fill-rule:evenodd;stroke:#000000;stroke-width:0.600001;stroke-opacity:1;stroke-linejoin:round;stroke-linecap:round"
         d="m 129.51344,91.448177 c 0.9991,0.82077 1.96509,1.681837 2.89484,2.580407 1.0345,0.999806 2.02402,2.045881 3.07463,3.028739 0.66125,0.618607 1.34628,1.211767 1.99627,1.842195 0.98976,0.959969 1.89671,2.005282 2.70751,3.120522"
         id="path11"
         inkscape:path-effect="#path-effect11"
         inkscape:original-d="m 129.51344,91.448177 c 0.93435,0.829543 1.9146,1.704975 2.89484,2.580407 0.98024,0.875432 2.08034,2.034456 3.07463,3.028739 0.99428,0.994283 1.21614,1.138549 1.99627,1.842195 0.78013,0.703649 1.88912,2.154632 2.70751,3.120522" /><path
         style="opacity:1;fill:none;fill-opacity:1;fill-rule:evenodd;stroke:#000000;stroke-width:0.2;stroke-opacity:1;stroke-dasharray:none;stroke-linejoin:round;stroke-linecap:round"
         d="m 123.79988,78.591771 c 1.06036,-0.173934 2.10461,-0.445875 3.11512,-0.811228 0.91634,-0.331306 1.80737,-0.740726 2.62837,-1.265515 0.74008,-0.473065 1.41951,-1.037532 2.0443,-1.654905 0.76688,-0.757775 1.45338,-1.596837 2.04429,-2.498582"
         id="path12"
         inkscape:path-effect="#path-effect12"
         inkscape:original-d="m 123.79988,78.591771 c 1.02755,-0.270409 2.08756,-0.540818 3.11512,-0.811228 1.02755,-0.270409 1.76306,-0.865309 2.62837,-1.265515 0.86531,-0.400206 1.34123,-1.081638 2.0443,-1.654905 0.70306,-0.573268 1.36286,-1.665722 2.04429,-2.498582" /><path
         style="opacity:1;fill:none;fill-opacity:1;fill-rule:evenodd;stroke:#000000;stroke-width:0.2;stroke-opacity:1;stroke-dasharray:none;stroke-linejoin:round;stroke-linecap:round"
         d="m 129.12154,82.550565 5.32165,-8.761264"
         id="path13" /><path
         style="opacity:1;fill:none;fill-opacity:1;fill-rule:evenodd;stroke:#000000;stroke-width:0.2;stroke-opacity:1;stroke-dasharray:none;stroke-linejoin:round;stroke-linecap:round"
         d="m 131.26318,83.231997 4.73757,-7.528198"
         id="path14" /><path
         style="opacity:1;fill:none;fill-opacity:1;fill-rule:evenodd;stroke:#000000;stroke-width:0.2;stroke-opacity:1;stroke-dasharray:none;stroke-linejoin:round;stroke-linecap:round"
         d="m 105.14963,63.006953 c -0.033,-0.582302 -0.002,-1.168203 0.0918,-1.743821 0.0634,-0.388489 0.15553,-0.772292 0.27534,-1.147249"
         id="path15"
         inkscape:path-effect="#path-effect15"
         inkscape:original-d="m 105.14963,63.006953 c 0.0153,-0.520088 0.0765,-1.177843 0.0918,-1.743821 0.0153,-0.565975 0.16826,-0.73424 0.27534,-1.147249" /><path
         style="opacity:1;fill:none;fill-opacity:1;fill-rule:evenodd;stroke:#000000;stroke-width:0.2;stroke-opacity:1;stroke-dasharray:none;stroke-linejoin:round;stroke-linecap:round"
         d="m 106.02154,63.190513 0.0918,-1.652039"
         id="path16"
         inkscape:path-effect="#path-effect16"
         inkscape:original-d="m 106.02154,63.190513 c 0.0306,-0.489495 0.0612,-1.070768 0.0918,-1.652039" /><path
         style="opacity:1;fill:none;fill-opacity:1;fill-rule:evenodd;stroke:#000000;stroke-width:0.2;stroke-opacity:1;stroke-dasharray:none;stroke-linejoin:round;stroke-linecap:round"
         d="m 109.50917,61.813812 0.66541,-0.55068 -0.66541,0.573625 c -0.12684,0.251683 -0.21245,0.524085 -0.25239,0.803077 -0.0699,0.488366 0.003,0.996279 0.20651,1.445532"
         id="path17"
         inkscape:path-effect="#path-effect17"
         inkscape:original-d="m 109.50917,61.813812 0.66541,-0.55068 c -0.2218,0.168265 -0.88721,0.764834 -0.66541,0.573625 -0.2218,0.168264 -0.16826,0.527735 -0.25239,0.803077 -0.0841,0.275338 0.13767,0.963689 0.20651,1.445532" /><path
         style="opacity:1;fill:none;fill-opacity:1;fill-rule:evenodd;stroke:#000000;stroke-width:0.2;stroke-opacity:1;stroke-dasharray:none;stroke-linejoin:round;stroke-linecap:round"
         d="m 113.22626,61.653197 c 0.20455,0.340924 0.33106,0.728361 0.36712,1.124305 0.0382,0.419738 -0.0254,0.848337 -0.18356,1.23903 -0.12731,0.31458 -0.31534,0.604459 -0.55068,0.848966"
         id="path18"
         inkscape:path-effect="#path-effect18"
         inkscape:original-d="m 113.22626,61.653197 c 0.11473,0.351824 0.22946,0.749538 0.36712,1.124305 0.13767,0.374769 -0.11472,0.818372 -0.18356,1.23903 -0.0688,0.420658 -0.36712,0.565975 -0.55068,0.848966" /><path
         style="opacity:1;fill:none;fill-opacity:1;fill-rule:evenodd;stroke:#000000;stroke-width:0.2;stroke-opacity:1;stroke-dasharray:none;stroke-linejoin:round;stroke-linecap:round"
         d="m 110.38109,67.618895 0.57362,-0.871908 -0.57362,0.894855 c -0.0982,0.256126 -0.15271,0.528898 -0.16062,0.803074 -0.0109,0.37832 0.0678,0.759134 0.22945,1.10136 0.0854,0.180815 0.1936,0.350847 0.32123,0.504791"
         id="path19"
         inkscape:path-effect="#path-effect19"
         inkscape:original-d="m 110.38109,67.618895 0.57362,-0.871908 c -0.19121,0.290637 -0.76483,1.185489 -0.57362,0.894855 -0.19121,0.26769 -0.0994,0.543031 -0.16062,0.803074 -0.0612,0.260043 0.16062,0.726591 0.22945,1.10136 0.0688,0.374769 0.19886,0.328877 0.32123,0.504791" /><path
         style="opacity:1;fill:none;fill-opacity:1;fill-rule:evenodd;stroke:#000000;stroke-width:0.2;stroke-opacity:1;stroke-dasharray:none;stroke-linejoin:round;stroke-linecap:round"
         d="m 114.23584,67.733621 -0.29828,-0.9178 0.29828,0.940745 c 0.0964,0.428346 0.10422,0.876407 0.0229,1.307864 -0.0654,0.346957 -0.19141,0.688824 -0.41301,0.963689 -0.12675,0.157216 -0.28332,0.290302 -0.4589,0.390068"
         id="path20"
         inkscape:path-effect="#path-effect20"
         inkscape:original-d="m 114.23584,67.733621 -0.29828,-0.9178 c 0.0994,0.305932 0.39771,1.24668 0.29828,0.940745 0.0994,0.282987 0.008,0.87191 0.0229,1.307864 0.0153,0.435957 -0.26769,0.634812 -0.41301,0.963689 -0.14532,0.32888 -0.30593,0.260043 -0.4589,0.390068" /><path
         style="opacity:1;fill:none;fill-opacity:1;fill-rule:evenodd;stroke:#000000;stroke-width:0.2;stroke-opacity:1;stroke-dasharray:none;stroke-linejoin:round;stroke-linecap:round"
         d="m 110.04449,71.519615 c -0.18768,0.305791 -0.32991,0.639421 -0.42059,0.986565 -0.0646,0.247444 -0.10316,0.5017 -0.11473,0.757185 -0.0467,0.270866 -0.006,0.55613 0.11473,0.803074 0.11088,0.226821 0.28845,0.420536 0.50479,0.55068"
         id="path21"
         inkscape:path-effect="#path-effect21"
         inkscape:original-d="m 110.04449,71.519615 c -0.1402,0.328856 -0.28039,0.680654 -0.42059,0.986565 -0.14019,0.305909 -0.15297,1.017228 -0.11473,0.757185 -0.0382,0.237098 0.0841,0.535382 0.11473,0.803074 0.0306,0.267692 0.32888,0.359471 0.50479,0.55068" /><path
         style="opacity:1;fill:none;fill-opacity:1;fill-rule:evenodd;stroke:#000000;stroke-width:0.2;stroke-opacity:1;stroke-dasharray:none;stroke-linejoin:round;stroke-linecap:round"
         d="m 113.08897,71.463804 c 0.13946,0.187432 0.24135,0.402695 0.29791,0.629367 0.0745,0.298534 0.0701,0.611067 0.0459,0.9178 -0.0398,0.504882 -0.13228,1.005597 -0.27534,1.491424 l -0.25239,0.458899"
         id="path22"
         inkscape:path-effect="#path-effect22"
         inkscape:original-d="m 113.08897,71.463804 c 0.0687,0.194493 0.18331,0.434874 0.29791,0.629367 0.1146,0.19449 0.0306,0.596569 0.0459,0.9178 0.0153,0.321228 -0.35947,1.988566 -0.27534,1.491424 -0.0612,0.497142 -0.16062,0.305933 -0.25239,0.458899" /><path
         style="opacity:1;fill:none;fill-opacity:1;fill-rule:evenodd;stroke:#000000;stroke-width:0.2;stroke-opacity:1;stroke-dasharray:none;stroke-linejoin:round;stroke-linecap:round"
         d="m 106.664,76.842783 0.17342,-0.62444 -0.17342,0.647385 -0.0459,0.894855 0.18356,0.711295"
         id="path23"
         inkscape:path-effect="#path-effect23"
         inkscape:original-d="m 106.664,76.842783 0.17342,-0.62444 c -0.0578,0.177554 -0.23123,0.870828 -0.17342,0.647385 -0.0578,0.200498 -0.0688,1.200787 -0.0459,0.894855 -0.0459,0.305932 0.11472,0.474197 0.18356,0.711295" /><path
         style="opacity:1;fill:none;fill-opacity:1;fill-rule:evenodd;stroke:#000000;stroke-width:0.2;stroke-opacity:1;stroke-dasharray:none;stroke-linejoin:round;stroke-linecap:round"
         d="m 110.44992,76.91162 -0.0613,-0.532847 0.0384,0.532847 c 0.0855,0.313614 0.0855,0.650075 0,0.963689 -0.0713,0.261753 -0.19989,0.504486 -0.34417,0.73424 -0.0993,0.158192 -0.20659,0.311413 -0.32123,0.458898"
         id="path24"
         inkscape:path-effect="#path-effect24"
         inkscape:original-d="m 110.44992,76.91162 -0.0613,-0.532847 c 0.0204,0.147021 0.0588,0.725757 0.0384,0.532847 0.0434,0.19291 0.008,0.642458 0,0.963689 -0.008,0.321228 -0.24474,0.497141 -0.34417,0.73424 -0.0994,0.237098 -0.19886,0.298283 -0.32123,0.458898" /><path
         style="opacity:1;fill:none;fill-opacity:1;fill-rule:evenodd;stroke:#000000;stroke-width:0.2;stroke-opacity:1;stroke-dasharray:none;stroke-linejoin:round;stroke-linecap:round"
         d="m 110.17458,61.263132 3.05168,0.390065"
         id="path25" /><path
         style="opacity:1;fill:none;fill-opacity:1;fill-rule:evenodd;stroke:#000000;stroke-width:0.2;stroke-opacity:1;stroke-dasharray:none;stroke-linejoin:round;stroke-linecap:round"
         d="m 109.46329,64.085366 3.39585,0.780132"
         id="path26" /><path
         style="opacity:1;fill:none;fill-opacity:1;fill-rule:evenodd;stroke:#000000;stroke-width:0.2;stroke-opacity:1;stroke-dasharray:none;stroke-linejoin:round;stroke-linecap:round"
         d="m 110.95471,66.746987 2.98285,0.06883"
         id="path27" /><path
         style="opacity:1;fill:none;fill-opacity:1;fill-rule:evenodd;stroke:#000000;stroke-width:0.2;stroke-opacity:1;stroke-dasharray:none;stroke-linejoin:round;stroke-linecap:round"
         d="m 110.77115,70.051067 2.61568,0.36712"
         id="path28" /><path
         style="opacity:1;fill:none;fill-opacity:1;fill-rule:evenodd;stroke:#000000;stroke-width:0.2;stroke-opacity:1;stroke-dasharray:none;stroke-linejoin:round;stroke-linecap:round"
         d="m 110.12869,74.617119 2.77636,0.344175"
         id="path29" /><path
         style="opacity:1;fill:none;fill-opacity:1;fill-rule:evenodd;stroke:#000000;stroke-width:0.2;stroke-opacity:1;stroke-dasharray:none;stroke-linejoin:round;stroke-linecap:round"
         d="m 106.80166,78.471878 2.95996,0.596567"
         id="path30" /><path
         style="opacity:1;fill:none;fill-opacity:1;fill-rule:evenodd;stroke:#000000;stroke-width:0.2;stroke-dasharray:none;stroke-opacity:1;stroke-linejoin:round;stroke-linecap:round"
         d="m 120.17793,37.87921 c -0.41655,0.517688 -0.68224,1.15533 -0.75652,1.815629 -0.0674,0.598943 0.0255,1.224092 0.31962,1.750166 0.32857,0.587643 0.90706,1.030019 1.56026,1.193141"
         id="path31"
         inkscape:path-effect="#path-effect31"
         inkscape:original-d="m 120.17793,37.87921 c -0.19099,0.559321 -0.47375,1.210418 -0.75652,1.815629 -0.28276,0.605208 0.24314,1.168895 0.31962,1.750166 0.0765,0.581274 1.01012,0.778015 1.56026,1.193141" /><path
         style="opacity:1;fill:none;fill-opacity:1;fill-rule:evenodd;stroke:#000000;stroke-width:0.2;stroke-dasharray:none;stroke-opacity:1;stroke-linejoin:round;stroke-linecap:round"
         d="m 106.5045,69.37622 c -0.0339,-0.542088 -0.001,-1.088322 0.0974,-1.622456 0.11207,-0.607421 0.30929,-1.19907 0.58408,-1.752251"
         id="path32"
         inkscape:path-effect="#path-effect32"
         inkscape:original-d="m 106.5045,69.37622 c 0.0325,-0.540819 0.0649,-1.081637 0.0974,-1.622456 0.0324,-0.540817 0.38938,-1.168168 0.58408,-1.752251" /><path
         style="opacity:1;fill:none;fill-opacity:1;fill-rule:evenodd;stroke:#000000;stroke-width:0.2;stroke-dasharray:none;stroke-opacity:1;stroke-linejoin:round;stroke-linecap:round"
         d="m 105.53102,74.503181 c -0.21142,-0.357784 -0.29325,-0.790326 -0.22714,-1.200615 0.0389,-0.241648 0.12788,-0.475125 0.25959,-0.681432"
         id="path33"
         inkscape:path-effect="#path-effect33"
         inkscape:original-d="m 105.53102,74.503181 c -0.0973,-0.378571 -0.12979,-0.822044 -0.22714,-1.200615 -0.0974,-0.378574 0.15143,-0.432655 0.25959,-0.681432" /></g><g
       transform="matrix(0.352778 0 0 0.352778 125.302 32.4096)"
       ns18:version="1.11.1"
       ns18:texconverter="pdflatex"
       ns18:pdfconverter="inkscape"
       ns18:text="\\begin{center}\nRatchet \\\\ orientation\n\\end{center}"
       ns18:preamble="/home/hapless/.config/inkscape/extensions/textext/default_packages.tex"
       ns18:scale="1.0"
       ns18:alignment="middle center"
       ns18:jacobian_sqrt="0.352778"
       id="g125"><defs
   id="id-2ac56aa1-1b90-4cdf-b4fe-84e12023e735">
    <g
   id="id-32550191-8387-4a92-b70b-92a837779400">
      <symbol
   overflow="visible"
   id="id-bd2d2a67-cdb7-4740-bdd5-ec6d0df9c054">
        <path
   style="stroke:none"
   d=""
   id="id-d548a6c7-fde8-498f-a964-2c9d56e6b960" />
      </symbol>
      <symbol
   overflow="visible"
   id="id-633f146c-6a8e-4377-94fe-33ffcbdbb638">
        <path
   style="stroke:none"
   d="M 2.234375,-3.515625 V -6.09375 c 0,-0.234375 0,-0.359375 0.21875,-0.390625 C 2.546875,-6.5 2.84375,-6.5 3.046875,-6.5 c 0.890625,0 2,0.046875 2,1.484375 0,0.6875 -0.234375,1.5 -1.703125,1.5 z m 2.109375,0.125 C 5.296875,-3.625 6.078125,-4.234375 6.078125,-5.015625 6.078125,-5.96875 4.9375,-6.8125 3.484375,-6.8125 H 0.34375 V -6.5 h 0.25 c 0.765625,0 0.78125,0.109375 0.78125,0.46875 v 5.25 c 0,0.359375 -0.015625,0.46875 -0.78125,0.46875 h -0.25 V 0 c 0.359375,-0.03125 1.078125,-0.03125 1.453125,-0.03125 0.390625,0 1.109375,0 1.46875,0.03125 v -0.3125 h -0.25 c -0.765625,0 -0.78125,-0.109375 -0.78125,-0.46875 V -3.296875 H 3.375 c 0.15625,0 0.578125,0 0.9375,0.34375 0.375,0.34375 0.375,0.65625 0.375,1.328125 0,0.640625 0,1.046875 0.40625,1.421875 0.40625,0.359375 0.953125,0.421875 1.25,0.421875 0.78125,0 0.953125,-0.8125 0.953125,-1.09375 0,-0.0625 0,-0.171875 -0.125,-0.171875 -0.109375,0 -0.109375,0.09375 -0.125,0.15625 C 6.984375,-0.171875 6.640625,0 6.390625,0 5.90625,0 5.828125,-0.515625 5.6875,-1.4375 L 5.546875,-2.234375 C 5.375,-2.875 4.890625,-3.203125 4.34375,-3.390625 Z m 0,0"
   id="id-bf7b892a-cda3-47e6-a2b5-a8bb593d4a66" />
      </symbol>
      <symbol
   overflow="visible"
   id="id-93e05cb6-198e-4a84-beea-2cc63257dced">
        <path
   style="stroke:none"
   d="m 3.3125,-0.75 c 0.046875,0.390625 0.3125,0.8125 0.78125,0.8125 0.21875,0 0.828125,-0.140625 0.828125,-0.953125 v -0.5625 h -0.25 v 0.5625 c 0,0.578125 -0.25,0.640625 -0.359375,0.640625 -0.328125,0 -0.375,-0.453125 -0.375,-0.5 v -1.984375 c 0,-0.421875 0,-0.8125 -0.359375,-1.1875 C 3.1875,-4.3125 2.6875,-4.46875 2.21875,-4.46875 c -0.828125,0 -1.515625,0.46875 -1.515625,1.125 0,0.296875 0.203125,0.46875 0.46875,0.46875 0.28125,0 0.453125,-0.203125 0.453125,-0.453125 0,-0.125 -0.046875,-0.453125 -0.515625,-0.453125 C 1.390625,-4.140625 1.875,-4.25 2.1875,-4.25 c 0.5,0 1.0625,0.390625 1.0625,1.28125 v 0.359375 c -0.515625,0.03125 -1.203125,0.0625 -1.828125,0.359375 -0.75,0.34375 -1,0.859375 -1,1.296875 0,0.8125 0.96875,1.0625 1.59375,1.0625 0.65625,0 1.109375,-0.40625 1.296875,-0.859375 z M 3.25,-2.390625 v 1 c 0,0.9375 -0.71875,1.28125 -1.171875,1.28125 -0.484375,0 -0.890625,-0.34375 -0.890625,-0.84375 0,-0.546875 0.421875,-1.375 2.0625,-1.4375 z m 0,0"
   id="id-3d40dba6-a9f9-4563-abdb-fb2698afd845" />
      </symbol>
      <symbol
   overflow="visible"
   id="id-63ef2668-a0d0-4fd1-899a-ea36d0d2134e">
        <path
   style="stroke:none"
   d="m 1.71875,-3.984375 h 1.4375 v -0.3125 H 1.71875 V -6.125 h -0.25 c 0,0.8125 -0.296875,1.875 -1.28125,1.921875 v 0.21875 h 0.84375 v 2.75 c 0,1.21875 0.9375,1.34375 1.296875,1.34375 0.703125,0 0.984375,-0.703125 0.984375,-1.34375 v -0.5625 h -0.25 V -1.25 c 0,0.734375 -0.296875,1.109375 -0.671875,1.109375 -0.671875,0 -0.671875,-0.90625 -0.671875,-1.078125 z m 0,0"
   id="id-2b512dd7-b85c-434f-b88e-ebb63236ba78" />
      </symbol>
      <symbol
   overflow="visible"
   id="id-f7541f37-58f7-49db-8145-c1932cb05fdd">
        <path
   style="stroke:none"
   d="m 1.171875,-2.171875 c 0,-1.625 0.8125,-2.046875 1.34375,-2.046875 0.09375,0 0.71875,0.015625 1.0625,0.375 -0.40625,0.03125 -0.46875,0.328125 -0.46875,0.453125 0,0.265625 0.1875,0.453125 0.453125,0.453125 0.265625,0 0.46875,-0.15625 0.46875,-0.46875 0,-0.671875 -0.765625,-1.0625 -1.53125,-1.0625 -1.25,0 -2.15625,1.078125 -2.15625,2.3125 0,1.28125 0.984375,2.265625 2.140625,2.265625 1.328125,0 1.65625,-1.203125 1.65625,-1.296875 0,-0.09375 -0.109375,-0.09375 -0.140625,-0.09375 -0.078125,0 -0.109375,0.03125 -0.125,0.09375 -0.28125,0.921875 -0.9375,1.046875 -1.296875,1.046875 -0.53125,0 -1.40625,-0.421875 -1.40625,-2.03125 z m 0,0"
   id="id-0af5fee2-9f56-4973-a4f8-980925996497" />
      </symbol>
      <symbol
   overflow="visible"
   id="id-266005e4-e10e-4b9d-b4af-b06724c7c9a4">
        <path
   style="stroke:none"
   d="m 1.09375,-0.75 c 0,0.4375 -0.109375,0.4375 -0.78125,0.4375 V 0 c 0.359375,-0.015625 0.859375,-0.03125 1.140625,-0.03125 0.25,0 0.765625,0.015625 1.109375,0.03125 v -0.3125 c -0.671875,0 -0.78125,0 -0.78125,-0.4375 V -2.59375 C 1.78125,-3.625 2.5,-4.1875 3.125,-4.1875 c 0.640625,0 0.75,0.53125 0.75,1.109375 V -0.75 c 0,0.4375 -0.109375,0.4375 -0.78125,0.4375 V 0 c 0.34375,-0.015625 0.859375,-0.03125 1.125,-0.03125 0.25,0 0.78125,0.015625 1.109375,0.03125 v -0.3125 c -0.515625,0 -0.765625,0 -0.765625,-0.296875 v -1.90625 c 0,-0.859375 0,-1.15625 -0.3125,-1.515625 -0.140625,-0.171875 -0.46875,-0.375 -1.046875,-0.375 -0.84375,0 -1.28125,0.59375 -1.453125,0.984375 v -3.5 L 0.3125,-6.8125 V -6.5 c 0.703125,0 0.78125,0.0625 0.78125,0.5625 z m 0,0"
   id="id-f87deb13-0eaa-44e3-80bf-77403763eb5d" />
      </symbol>
      <symbol
   overflow="visible"
   id="id-6ba1af1e-46b9-408b-ba25-9a13f0e034dd">
        <path
   style="stroke:none"
   d="M 1.109375,-2.515625 C 1.171875,-4 2.015625,-4.25 2.359375,-4.25 c 1.015625,0 1.125,1.34375 1.125,1.734375 z m 0,0.21875 h 2.78125 c 0.21875,0 0.25,0 0.25,-0.21875 0,-0.984375 -0.546875,-1.953125 -1.78125,-1.953125 -1.15625,0 -2.078125,1.03125 -2.078125,2.28125 0,1.328125 1.046875,2.296875 2.1875,2.296875 C 3.6875,0.109375 4.140625,-1 4.140625,-1.1875 4.140625,-1.28125 4.0625,-1.3125 4,-1.3125 c -0.078125,0 -0.109375,0.0625 -0.125,0.140625 -0.34375,1.03125 -1.25,1.03125 -1.34375,1.03125 -0.5,0 -0.890625,-0.296875 -1.125,-0.671875 -0.296875,-0.46875 -0.296875,-1.125 -0.296875,-1.484375 z m 0,0"
   id="id-316af764-d103-4e09-8bdf-433e574bda00" />
      </symbol>
      <symbol
   overflow="visible"
   id="id-9ef40a5b-5a05-4eef-8890-6cf80b6a5d1f">
        <path
   style="stroke:none"
   d="M 4.6875,-2.140625 C 4.6875,-3.40625 3.703125,-4.46875 2.5,-4.46875 c -1.25,0 -2.21875,1.09375 -2.21875,2.328125 0,1.296875 1.03125,2.25 2.203125,2.25 1.203125,0 2.203125,-0.984375 2.203125,-2.25 z m -2.1875,2 c -0.4375,0 -0.875,-0.203125 -1.140625,-0.671875 -0.25,-0.4375 -0.25,-1.046875 -0.25,-1.40625 0,-0.390625 0,-0.921875 0.234375,-1.359375 C 1.609375,-4.03125 2.078125,-4.25 2.484375,-4.25 c 0.4375,0 0.859375,0.21875 1.125,0.65625 0.265625,0.421875 0.265625,1 0.265625,1.375 0,0.359375 0,0.90625 -0.21875,1.34375 C 3.421875,-0.421875 2.984375,-0.140625 2.5,-0.140625 Z m 0,0"
   id="id-f043929d-a9e2-4166-ae22-69046e6a6b13" />
      </symbol>
      <symbol
   overflow="visible"
   id="id-26aeeb1f-640c-4166-abc0-57f5f95facbf">
        <path
   style="stroke:none"
   d="M 1.671875,-3.3125 V -4.40625 L 0.28125,-4.296875 v 0.3125 c 0.703125,0 0.78125,0.0625 0.78125,0.5625 V -0.75 c 0,0.4375 -0.109375,0.4375 -0.78125,0.4375 V 0 c 0.390625,-0.015625 0.859375,-0.03125 1.140625,-0.03125 0.390625,0 0.859375,0 1.265625,0.03125 V -0.3125 H 2.46875 c -0.734375,0 -0.75,-0.109375 -0.75,-0.46875 V -2.3125 c 0,-0.984375 0.421875,-1.875 1.171875,-1.875 0.0625,0 0.09375,0 0.109375,0.015625 -0.03125,0 -0.234375,0.125 -0.234375,0.390625 0,0.265625 0.21875,0.421875 0.4375,0.421875 0.171875,0 0.421875,-0.125 0.421875,-0.4375 0,-0.3125 -0.3125,-0.609375 -0.734375,-0.609375 -0.734375,0 -1.09375,0.671875 -1.21875,1.09375 z m 0,0"
   id="id-7a4a6719-3306-4e26-b8ea-3a66e8a227a9" />
      </symbol>
      <symbol
   overflow="visible"
   id="id-eb208ef9-c5af-455a-99f9-42d090babfa2">
        <path
   style="stroke:none"
   d="M 1.765625,-4.40625 0.375,-4.296875 v 0.3125 c 0.640625,0 0.734375,0.0625 0.734375,0.546875 V -0.75 c 0,0.4375 -0.109375,0.4375 -0.78125,0.4375 V 0 C 0.640625,-0.015625 1.1875,-0.03125 1.421875,-0.03125 1.78125,-0.03125 2.125,-0.015625 2.46875,0 v -0.3125 c -0.671875,0 -0.703125,-0.046875 -0.703125,-0.4375 z m 0.03125,-1.734375 c 0,-0.3125 -0.234375,-0.53125 -0.515625,-0.53125 -0.3125,0 -0.53125,0.265625 -0.53125,0.53125 0,0.265625 0.21875,0.53125 0.53125,0.53125 0.28125,0 0.515625,-0.21875 0.515625,-0.53125 z m 0,0"
   id="id-97068a14-fa8f-4147-9320-10ba0f66fe97" />
      </symbol>
      <symbol
   overflow="visible"
   id="id-7c53782f-0a28-4bbb-95a4-7b004b0d14ad">
        <path
   style="stroke:none"
   d="M 1.09375,-3.421875 V -0.75 c 0,0.4375 -0.109375,0.4375 -0.78125,0.4375 V 0 c 0.359375,-0.015625 0.859375,-0.03125 1.140625,-0.03125 0.25,0 0.765625,0.015625 1.109375,0.03125 v -0.3125 c -0.671875,0 -0.78125,0 -0.78125,-0.4375 V -2.59375 C 1.78125,-3.625 2.5,-4.1875 3.125,-4.1875 c 0.640625,0 0.75,0.53125 0.75,1.109375 V -0.75 c 0,0.4375 -0.109375,0.4375 -0.78125,0.4375 V 0 c 0.34375,-0.015625 0.859375,-0.03125 1.125,-0.03125 0.25,0 0.78125,0.015625 1.109375,0.03125 v -0.3125 c -0.515625,0 -0.765625,0 -0.765625,-0.296875 v -1.90625 c 0,-0.859375 0,-1.15625 -0.3125,-1.515625 -0.140625,-0.171875 -0.46875,-0.375 -1.046875,-0.375 C 2.46875,-4.40625 2,-3.984375 1.71875,-3.359375 V -4.40625 L 0.3125,-4.296875 v 0.3125 c 0.703125,0 0.78125,0.0625 0.78125,0.5625 z m 0,0"
   id="id-4a0ddbb7-7168-4a6e-86f3-9f3ba757ce1e" />
      </symbol>
    </g>
  </defs>
  <g
   id="id-290af0bf-fff9-4f79-b701-c540a057d3ae"
   transform="translate(-282.23,-127.843)">
    <g
   style="fill:#000000;fill-opacity:1"
   id="id-f132659a-ff49-4146-8ba2-2ecc6cc25283">
      <g
   transform="translate(288.535,134.765)"
   id="g107"><path
   style="stroke:none"
   d="M 2.234375,-3.515625 V -6.09375 c 0,-0.234375 0,-0.359375 0.21875,-0.390625 C 2.546875,-6.5 2.84375,-6.5 3.046875,-6.5 c 0.890625,0 2,0.046875 2,1.484375 0,0.6875 -0.234375,1.5 -1.703125,1.5 z m 2.109375,0.125 C 5.296875,-3.625 6.078125,-4.234375 6.078125,-5.015625 6.078125,-5.96875 4.9375,-6.8125 3.484375,-6.8125 H 0.34375 V -6.5 h 0.25 c 0.765625,0 0.78125,0.109375 0.78125,0.46875 v 5.25 c 0,0.359375 -0.015625,0.46875 -0.78125,0.46875 h -0.25 V 0 c 0.359375,-0.03125 1.078125,-0.03125 1.453125,-0.03125 0.390625,0 1.109375,0 1.46875,0.03125 v -0.3125 h -0.25 c -0.765625,0 -0.78125,-0.109375 -0.78125,-0.46875 V -3.296875 H 3.375 c 0.15625,0 0.578125,0 0.9375,0.34375 0.375,0.34375 0.375,0.65625 0.375,1.328125 0,0.640625 0,1.046875 0.40625,1.421875 0.40625,0.359375 0.953125,0.421875 1.25,0.421875 0.78125,0 0.953125,-0.8125 0.953125,-1.09375 0,-0.0625 0,-0.171875 -0.125,-0.171875 -0.109375,0 -0.109375,0.09375 -0.125,0.15625 C 6.984375,-0.171875 6.640625,0 6.390625,0 5.90625,0 5.828125,-0.515625 5.6875,-1.4375 L 5.546875,-2.234375 C 5.375,-2.875 4.890625,-3.203125 4.34375,-3.390625 Z m 0,0"
   id="id-707d2f6f-e8f3-425a-8345-8092258b63cf" />
      </g><g
   transform="translate(295.868,134.765)"
   id="g108"><path
   style="stroke:none"
   d="m 3.3125,-0.75 c 0.046875,0.390625 0.3125,0.8125 0.78125,0.8125 0.21875,0 0.828125,-0.140625 0.828125,-0.953125 v -0.5625 h -0.25 v 0.5625 c 0,0.578125 -0.25,0.640625 -0.359375,0.640625 -0.328125,0 -0.375,-0.453125 -0.375,-0.5 v -1.984375 c 0,-0.421875 0,-0.8125 -0.359375,-1.1875 C 3.1875,-4.3125 2.6875,-4.46875 2.21875,-4.46875 c -0.828125,0 -1.515625,0.46875 -1.515625,1.125 0,0.296875 0.203125,0.46875 0.46875,0.46875 0.28125,0 0.453125,-0.203125 0.453125,-0.453125 0,-0.125 -0.046875,-0.453125 -0.515625,-0.453125 C 1.390625,-4.140625 1.875,-4.25 2.1875,-4.25 c 0.5,0 1.0625,0.390625 1.0625,1.28125 v 0.359375 c -0.515625,0.03125 -1.203125,0.0625 -1.828125,0.359375 -0.75,0.34375 -1,0.859375 -1,1.296875 0,0.8125 0.96875,1.0625 1.59375,1.0625 0.65625,0 1.109375,-0.40625 1.296875,-0.859375 z M 3.25,-2.390625 v 1 c 0,0.9375 -0.71875,1.28125 -1.171875,1.28125 -0.484375,0 -0.890625,-0.34375 -0.890625,-0.84375 0,-0.546875 0.421875,-1.375 2.0625,-1.4375 z m 0,0"
   id="id-5fa36c51-6c66-4d12-8e0b-2b7da743143f" />
      </g><g
   transform="translate(300.85,134.765)"
   id="g109"><path
   style="stroke:none"
   d="m 1.71875,-3.984375 h 1.4375 v -0.3125 H 1.71875 V -6.125 h -0.25 c 0,0.8125 -0.296875,1.875 -1.28125,1.921875 v 0.21875 h 0.84375 v 2.75 c 0,1.21875 0.9375,1.34375 1.296875,1.34375 0.703125,0 0.984375,-0.703125 0.984375,-1.34375 v -0.5625 h -0.25 V -1.25 c 0,0.734375 -0.296875,1.109375 -0.671875,1.109375 -0.671875,0 -0.671875,-0.90625 -0.671875,-1.078125 z m 0,0"
   id="id-3b679ba2-a396-4499-a6bb-c175d5c89aeb" />
      </g><g
   transform="translate(304.724,134.765)"
   id="g110"><path
   style="stroke:none"
   d="m 1.171875,-2.171875 c 0,-1.625 0.8125,-2.046875 1.34375,-2.046875 0.09375,0 0.71875,0.015625 1.0625,0.375 -0.40625,0.03125 -0.46875,0.328125 -0.46875,0.453125 0,0.265625 0.1875,0.453125 0.453125,0.453125 0.265625,0 0.46875,-0.15625 0.46875,-0.46875 0,-0.671875 -0.765625,-1.0625 -1.53125,-1.0625 -1.25,0 -2.15625,1.078125 -2.15625,2.3125 0,1.28125 0.984375,2.265625 2.140625,2.265625 1.328125,0 1.65625,-1.203125 1.65625,-1.296875 0,-0.09375 -0.109375,-0.09375 -0.140625,-0.09375 -0.078125,0 -0.109375,0.03125 -0.125,0.09375 -0.28125,0.921875 -0.9375,1.046875 -1.296875,1.046875 -0.53125,0 -1.40625,-0.421875 -1.40625,-2.03125 z m 0,0"
   id="id-50f69c9c-e614-4280-a243-fa05c5d8f2d3" />
      </g></g>
    <g
   style="fill:#000000;fill-opacity:1"
   id="id-faf41ee2-8f38-4553-b84a-a902e2ae4ec5">
      <g
   transform="translate(308.873,134.765)"
   id="g111"><path
   style="stroke:none"
   d="m 1.09375,-0.75 c 0,0.4375 -0.109375,0.4375 -0.78125,0.4375 V 0 c 0.359375,-0.015625 0.859375,-0.03125 1.140625,-0.03125 0.25,0 0.765625,0.015625 1.109375,0.03125 v -0.3125 c -0.671875,0 -0.78125,0 -0.78125,-0.4375 V -2.59375 C 1.78125,-3.625 2.5,-4.1875 3.125,-4.1875 c 0.640625,0 0.75,0.53125 0.75,1.109375 V -0.75 c 0,0.4375 -0.109375,0.4375 -0.78125,0.4375 V 0 c 0.34375,-0.015625 0.859375,-0.03125 1.125,-0.03125 0.25,0 0.78125,0.015625 1.109375,0.03125 v -0.3125 c -0.515625,0 -0.765625,0 -0.765625,-0.296875 v -1.90625 c 0,-0.859375 0,-1.15625 -0.3125,-1.515625 -0.140625,-0.171875 -0.46875,-0.375 -1.046875,-0.375 -0.84375,0 -1.28125,0.59375 -1.453125,0.984375 v -3.5 L 0.3125,-6.8125 V -6.5 c 0.703125,0 0.78125,0.0625 0.78125,0.5625 z m 0,0"
   id="id-fd82049e-b3ee-4ca3-b049-35747d4f474b" />
      </g><g
   transform="translate(314.408,134.765)"
   id="g112"><path
   style="stroke:none"
   d="M 1.109375,-2.515625 C 1.171875,-4 2.015625,-4.25 2.359375,-4.25 c 1.015625,0 1.125,1.34375 1.125,1.734375 z m 0,0.21875 h 2.78125 c 0.21875,0 0.25,0 0.25,-0.21875 0,-0.984375 -0.546875,-1.953125 -1.78125,-1.953125 -1.15625,0 -2.078125,1.03125 -2.078125,2.28125 0,1.328125 1.046875,2.296875 2.1875,2.296875 C 3.6875,0.109375 4.140625,-1 4.140625,-1.1875 4.140625,-1.28125 4.0625,-1.3125 4,-1.3125 c -0.078125,0 -0.109375,0.0625 -0.125,0.140625 -0.34375,1.03125 -1.25,1.03125 -1.34375,1.03125 -0.5,0 -0.890625,-0.296875 -1.125,-0.671875 -0.296875,-0.46875 -0.296875,-1.125 -0.296875,-1.484375 z m 0,0"
   id="id-52341476-86c6-475a-a642-696e2c4a2a2c" />
      </g><g
   transform="translate(318.835,134.765)"
   id="g113"><path
   style="stroke:none"
   d="m 1.71875,-3.984375 h 1.4375 v -0.3125 H 1.71875 V -6.125 h -0.25 c 0,0.8125 -0.296875,1.875 -1.28125,1.921875 v 0.21875 h 0.84375 v 2.75 c 0,1.21875 0.9375,1.34375 1.296875,1.34375 0.703125,0 0.984375,-0.703125 0.984375,-1.34375 v -0.5625 h -0.25 V -1.25 c 0,0.734375 -0.296875,1.109375 -0.671875,1.109375 -0.671875,0 -0.671875,-0.90625 -0.671875,-1.078125 z m 0,0"
   id="id-b17f806b-74c1-47db-a59b-3eba76b09d21" />
      </g></g>
    <g
   style="fill:#000000;fill-opacity:1"
   id="id-7b7f71fb-8616-4b21-b26d-0cce304e2cc2">
      <g
   transform="translate(281.949,146.72)"
   id="g114"><path
   style="stroke:none"
   d="M 4.6875,-2.140625 C 4.6875,-3.40625 3.703125,-4.46875 2.5,-4.46875 c -1.25,0 -2.21875,1.09375 -2.21875,2.328125 0,1.296875 1.03125,2.25 2.203125,2.25 1.203125,0 2.203125,-0.984375 2.203125,-2.25 z m -2.1875,2 c -0.4375,0 -0.875,-0.203125 -1.140625,-0.671875 -0.25,-0.4375 -0.25,-1.046875 -0.25,-1.40625 0,-0.390625 0,-0.921875 0.234375,-1.359375 C 1.609375,-4.03125 2.078125,-4.25 2.484375,-4.25 c 0.4375,0 0.859375,0.21875 1.125,0.65625 0.265625,0.421875 0.265625,1 0.265625,1.375 0,0.359375 0,0.90625 -0.21875,1.34375 C 3.421875,-0.421875 2.984375,-0.140625 2.5,-0.140625 Z m 0,0"
   id="id-99be9f8e-fbdb-4b97-80a1-c5a67e25549d" />
      </g><g
   transform="translate(286.93,146.72)"
   id="g115"><path
   style="stroke:none"
   d="M 1.671875,-3.3125 V -4.40625 L 0.28125,-4.296875 v 0.3125 c 0.703125,0 0.78125,0.0625 0.78125,0.5625 V -0.75 c 0,0.4375 -0.109375,0.4375 -0.78125,0.4375 V 0 c 0.390625,-0.015625 0.859375,-0.03125 1.140625,-0.03125 0.390625,0 0.859375,0 1.265625,0.03125 V -0.3125 H 2.46875 c -0.734375,0 -0.75,-0.109375 -0.75,-0.46875 V -2.3125 c 0,-0.984375 0.421875,-1.875 1.171875,-1.875 0.0625,0 0.09375,0 0.109375,0.015625 -0.03125,0 -0.234375,0.125 -0.234375,0.390625 0,0.265625 0.21875,0.421875 0.4375,0.421875 0.171875,0 0.421875,-0.125 0.421875,-0.4375 0,-0.3125 -0.3125,-0.609375 -0.734375,-0.609375 -0.734375,0 -1.09375,0.671875 -1.21875,1.09375 z m 0,0"
   id="id-b78e4590-78f9-4b43-b274-083e1851a9da" />
      </g><g
   transform="translate(290.833,146.72)"
   id="g116"><path
   style="stroke:none"
   d="M 1.765625,-4.40625 0.375,-4.296875 v 0.3125 c 0.640625,0 0.734375,0.0625 0.734375,0.546875 V -0.75 c 0,0.4375 -0.109375,0.4375 -0.78125,0.4375 V 0 C 0.640625,-0.015625 1.1875,-0.03125 1.421875,-0.03125 1.78125,-0.03125 2.125,-0.015625 2.46875,0 v -0.3125 c -0.671875,0 -0.703125,-0.046875 -0.703125,-0.4375 z m 0.03125,-1.734375 c 0,-0.3125 -0.234375,-0.53125 -0.515625,-0.53125 -0.3125,0 -0.53125,0.265625 -0.53125,0.53125 0,0.265625 0.21875,0.53125 0.53125,0.53125 0.28125,0 0.515625,-0.21875 0.515625,-0.53125 z m 0,0"
   id="id-dc7eb8fc-b1d1-4b66-a2d4-f3637e5229c1" />
      </g><g
   transform="translate(293.6,146.72)"
   id="g117"><path
   style="stroke:none"
   d="M 1.109375,-2.515625 C 1.171875,-4 2.015625,-4.25 2.359375,-4.25 c 1.015625,0 1.125,1.34375 1.125,1.734375 z m 0,0.21875 h 2.78125 c 0.21875,0 0.25,0 0.25,-0.21875 0,-0.984375 -0.546875,-1.953125 -1.78125,-1.953125 -1.15625,0 -2.078125,1.03125 -2.078125,2.28125 0,1.328125 1.046875,2.296875 2.1875,2.296875 C 3.6875,0.109375 4.140625,-1 4.140625,-1.1875 4.140625,-1.28125 4.0625,-1.3125 4,-1.3125 c -0.078125,0 -0.109375,0.0625 -0.125,0.140625 -0.34375,1.03125 -1.25,1.03125 -1.34375,1.03125 -0.5,0 -0.890625,-0.296875 -1.125,-0.671875 -0.296875,-0.46875 -0.296875,-1.125 -0.296875,-1.484375 z m 0,0"
   id="id-2724a50e-175f-4c4f-ade8-a6fd0632d115" />
      </g><g
   transform="translate(298.028,146.72)"
   id="g118"><path
   style="stroke:none"
   d="M 1.09375,-3.421875 V -0.75 c 0,0.4375 -0.109375,0.4375 -0.78125,0.4375 V 0 c 0.359375,-0.015625 0.859375,-0.03125 1.140625,-0.03125 0.25,0 0.765625,0.015625 1.109375,0.03125 v -0.3125 c -0.671875,0 -0.78125,0 -0.78125,-0.4375 V -2.59375 C 1.78125,-3.625 2.5,-4.1875 3.125,-4.1875 c 0.640625,0 0.75,0.53125 0.75,1.109375 V -0.75 c 0,0.4375 -0.109375,0.4375 -0.78125,0.4375 V 0 c 0.34375,-0.015625 0.859375,-0.03125 1.125,-0.03125 0.25,0 0.78125,0.015625 1.109375,0.03125 v -0.3125 c -0.515625,0 -0.765625,0 -0.765625,-0.296875 v -1.90625 c 0,-0.859375 0,-1.15625 -0.3125,-1.515625 -0.140625,-0.171875 -0.46875,-0.375 -1.046875,-0.375 C 2.46875,-4.40625 2,-3.984375 1.71875,-3.359375 V -4.40625 L 0.3125,-4.296875 v 0.3125 c 0.703125,0 0.78125,0.0625 0.78125,0.5625 z m 0,0"
   id="id-764401e3-1003-4978-bc14-5ccb1178d38a" />
      </g></g>
    <g
   style="fill:#000000;fill-opacity:1"
   id="id-d50d6eb2-d0cd-430f-9bf3-3859540c9b5f">
      <g
   transform="translate(303.284,146.72)"
   id="g119"><path
   style="stroke:none"
   d="m 1.71875,-3.984375 h 1.4375 v -0.3125 H 1.71875 V -6.125 h -0.25 c 0,0.8125 -0.296875,1.875 -1.28125,1.921875 v 0.21875 h 0.84375 v 2.75 c 0,1.21875 0.9375,1.34375 1.296875,1.34375 0.703125,0 0.984375,-0.703125 0.984375,-1.34375 v -0.5625 h -0.25 V -1.25 c 0,0.734375 -0.296875,1.109375 -0.671875,1.109375 -0.671875,0 -0.671875,-0.90625 -0.671875,-1.078125 z m 0,0"
   id="id-17accc0a-d0e5-49d7-888e-f67800b7c9ac" />
      </g><g
   transform="translate(307.158,146.72)"
   id="g120"><path
   style="stroke:none"
   d="m 3.3125,-0.75 c 0.046875,0.390625 0.3125,0.8125 0.78125,0.8125 0.21875,0 0.828125,-0.140625 0.828125,-0.953125 v -0.5625 h -0.25 v 0.5625 c 0,0.578125 -0.25,0.640625 -0.359375,0.640625 -0.328125,0 -0.375,-0.453125 -0.375,-0.5 v -1.984375 c 0,-0.421875 0,-0.8125 -0.359375,-1.1875 C 3.1875,-4.3125 2.6875,-4.46875 2.21875,-4.46875 c -0.828125,0 -1.515625,0.46875 -1.515625,1.125 0,0.296875 0.203125,0.46875 0.46875,0.46875 0.28125,0 0.453125,-0.203125 0.453125,-0.453125 0,-0.125 -0.046875,-0.453125 -0.515625,-0.453125 C 1.390625,-4.140625 1.875,-4.25 2.1875,-4.25 c 0.5,0 1.0625,0.390625 1.0625,1.28125 v 0.359375 c -0.515625,0.03125 -1.203125,0.0625 -1.828125,0.359375 -0.75,0.34375 -1,0.859375 -1,1.296875 0,0.8125 0.96875,1.0625 1.59375,1.0625 0.65625,0 1.109375,-0.40625 1.296875,-0.859375 z M 3.25,-2.390625 v 1 c 0,0.9375 -0.71875,1.28125 -1.171875,1.28125 -0.484375,0 -0.890625,-0.34375 -0.890625,-0.84375 0,-0.546875 0.421875,-1.375 2.0625,-1.4375 z m 0,0"
   id="id-a834f47e-650e-415c-9763-b636b496a029" />
      </g><g
   transform="translate(312.14,146.72)"
   id="g121"><path
   style="stroke:none"
   d="m 1.71875,-3.984375 h 1.4375 v -0.3125 H 1.71875 V -6.125 h -0.25 c 0,0.8125 -0.296875,1.875 -1.28125,1.921875 v 0.21875 h 0.84375 v 2.75 c 0,1.21875 0.9375,1.34375 1.296875,1.34375 0.703125,0 0.984375,-0.703125 0.984375,-1.34375 v -0.5625 h -0.25 V -1.25 c 0,0.734375 -0.296875,1.109375 -0.671875,1.109375 -0.671875,0 -0.671875,-0.90625 -0.671875,-1.078125 z m 0,0"
   id="id-4f045cd3-940b-468c-a031-7c2e160c1c91" />
      </g><g
   transform="translate(316.014,146.72)"
   id="g122"><path
   style="stroke:none"
   d="M 1.765625,-4.40625 0.375,-4.296875 v 0.3125 c 0.640625,0 0.734375,0.0625 0.734375,0.546875 V -0.75 c 0,0.4375 -0.109375,0.4375 -0.78125,0.4375 V 0 C 0.640625,-0.015625 1.1875,-0.03125 1.421875,-0.03125 1.78125,-0.03125 2.125,-0.015625 2.46875,0 v -0.3125 c -0.671875,0 -0.703125,-0.046875 -0.703125,-0.4375 z m 0.03125,-1.734375 c 0,-0.3125 -0.234375,-0.53125 -0.515625,-0.53125 -0.3125,0 -0.53125,0.265625 -0.53125,0.53125 0,0.265625 0.21875,0.53125 0.53125,0.53125 0.28125,0 0.515625,-0.21875 0.515625,-0.53125 z m 0,0"
   id="id-a0638e86-ab76-47c3-a355-f707ba22bf19" />
      </g><g
   transform="translate(318.782,146.72)"
   id="g123"><path
   style="stroke:none"
   d="M 4.6875,-2.140625 C 4.6875,-3.40625 3.703125,-4.46875 2.5,-4.46875 c -1.25,0 -2.21875,1.09375 -2.21875,2.328125 0,1.296875 1.03125,2.25 2.203125,2.25 1.203125,0 2.203125,-0.984375 2.203125,-2.25 z m -2.1875,2 c -0.4375,0 -0.875,-0.203125 -1.140625,-0.671875 -0.25,-0.4375 -0.25,-1.046875 -0.25,-1.40625 0,-0.390625 0,-0.921875 0.234375,-1.359375 C 1.609375,-4.03125 2.078125,-4.25 2.484375,-4.25 c 0.4375,0 0.859375,0.21875 1.125,0.65625 0.265625,0.421875 0.265625,1 0.265625,1.375 0,0.359375 0,0.90625 -0.21875,1.34375 C 3.421875,-0.421875 2.984375,-0.140625 2.5,-0.140625 Z m 0,0"
   id="id-d3725330-0d71-452d-8b67-d6a9d21c4ea8" />
      </g><g
   transform="translate(323.763,146.72)"
   id="g124"><path
   style="stroke:none"
   d="M 1.09375,-3.421875 V -0.75 c 0,0.4375 -0.109375,0.4375 -0.78125,0.4375 V 0 c 0.359375,-0.015625 0.859375,-0.03125 1.140625,-0.03125 0.25,0 0.765625,0.015625 1.109375,0.03125 v -0.3125 c -0.671875,0 -0.78125,0 -0.78125,-0.4375 V -2.59375 C 1.78125,-3.625 2.5,-4.1875 3.125,-4.1875 c 0.640625,0 0.75,0.53125 0.75,1.109375 V -0.75 c 0,0.4375 -0.109375,0.4375 -0.78125,0.4375 V 0 c 0.34375,-0.015625 0.859375,-0.03125 1.125,-0.03125 0.25,0 0.78125,0.015625 1.109375,0.03125 v -0.3125 c -0.515625,0 -0.765625,0 -0.765625,-0.296875 v -1.90625 c 0,-0.859375 0,-1.15625 -0.3125,-1.515625 -0.140625,-0.171875 -0.46875,-0.375 -1.046875,-0.375 C 2.46875,-4.40625 2,-3.984375 1.71875,-3.359375 V -4.40625 L 0.3125,-4.296875 v 0.3125 c 0.703125,0 0.78125,0.0625 0.78125,0.5625 z m 0,0"
   id="id-822ca78b-73d9-47d4-85ad-f3214443c794" />
      </g></g>
  </g>
</g><g
       transform="matrix(0.352778 0 0 0.352778 59.5742 63.671)"
       ns18:version="1.11.1"
       ns18:texconverter="pdflatex"
       ns18:pdfconverter="inkscape"
       ns18:text="\\begin{center}\nDirection of \\\\ ratchet ``wall''\n\\end{center}"
       ns18:preamble="/home/hapless/.config/inkscape/extensions/textext/default_packages.tex"
       ns18:scale="1.0"
       ns18:alignment="middle center"
       ns18:inkscapeversion="1.4.2"
       ns18:jacobian_sqrt="0.352778"
       id="g295"><defs
   id="id-0acff498-e504-42ce-bce6-73ee368138a6">
    <g
   id="id-6f35f261-2511-484a-a4b1-872b8f82aa35">
      <symbol
   overflow="visible"
   id="id-e4661d80-b39c-40d1-81ff-a7c1e0adff9c">
        <path
   style="stroke:none"
   d=""
   id="id-b822caa9-d522-46eb-830c-80638255871c" />
      </symbol>
      <symbol
   overflow="visible"
   id="id-a164915a-dc92-444d-a818-98af8e20fd7b">
        <path
   style="stroke:none"
   d="M 0.34375,-6.8125 V -6.5 h 0.25 c 0.765625,0 0.78125,0.109375 0.78125,0.46875 v 5.25 c 0,0.359375 -0.015625,0.46875 -0.78125,0.46875 h -0.25 V 0 H 4 C 5.671875,0 7.046875,-1.46875 7.046875,-3.34375 7.046875,-5.25 5.703125,-6.8125 4,-6.8125 Z m 2.375,6.5 C 2.25,-0.3125 2.234375,-0.375 2.234375,-0.703125 V -6.09375 C 2.234375,-6.4375 2.25,-6.5 2.71875,-6.5 h 1 c 0.625,0 1.3125,0.21875 1.8125,0.921875 0.4375,0.59375 0.515625,1.453125 0.515625,2.234375 0,1.09375 -0.1875,1.703125 -0.546875,2.1875 -0.203125,0.265625 -0.765625,0.84375 -1.765625,0.84375 z m 0,0"
   id="id-7a4a94a3-45c7-4bec-9bbc-018a676e3082" />
      </symbol>
      <symbol
   overflow="visible"
   id="id-6dfdcbd6-db23-484a-81b0-be34f40fd644">
        <path
   style="stroke:none"
   d="M 1.765625,-4.40625 0.375,-4.296875 v 0.3125 c 0.640625,0 0.734375,0.0625 0.734375,0.546875 V -0.75 c 0,0.4375 -0.109375,0.4375 -0.78125,0.4375 V 0 C 0.640625,-0.015625 1.1875,-0.03125 1.421875,-0.03125 1.78125,-0.03125 2.125,-0.015625 2.46875,0 v -0.3125 c -0.671875,0 -0.703125,-0.046875 -0.703125,-0.4375 z m 0.03125,-1.734375 c 0,-0.3125 -0.234375,-0.53125 -0.515625,-0.53125 -0.3125,0 -0.53125,0.265625 -0.53125,0.53125 0,0.265625 0.21875,0.53125 0.53125,0.53125 0.28125,0 0.515625,-0.21875 0.515625,-0.53125 z m 0,0"
   id="id-818834a8-cefc-4d05-b640-f67f94a753d0" />
      </symbol>
      <symbol
   overflow="visible"
   id="id-f7053e91-75bd-4da2-8ab4-468a84c91d83">
        <path
   style="stroke:none"
   d="M 1.671875,-3.3125 V -4.40625 L 0.28125,-4.296875 v 0.3125 c 0.703125,0 0.78125,0.0625 0.78125,0.5625 V -0.75 c 0,0.4375 -0.109375,0.4375 -0.78125,0.4375 V 0 c 0.390625,-0.015625 0.859375,-0.03125 1.140625,-0.03125 0.390625,0 0.859375,0 1.265625,0.03125 V -0.3125 H 2.46875 c -0.734375,0 -0.75,-0.109375 -0.75,-0.46875 V -2.3125 c 0,-0.984375 0.421875,-1.875 1.171875,-1.875 0.0625,0 0.09375,0 0.109375,0.015625 -0.03125,0 -0.234375,0.125 -0.234375,0.390625 0,0.265625 0.21875,0.421875 0.4375,0.421875 0.171875,0 0.421875,-0.125 0.421875,-0.4375 0,-0.3125 -0.3125,-0.609375 -0.734375,-0.609375 -0.734375,0 -1.09375,0.671875 -1.21875,1.09375 z m 0,0"
   id="id-7594ae0e-2e09-4792-8133-510d86e79727" />
      </symbol>
      <symbol
   overflow="visible"
   id="id-045482c2-639c-4a2f-a0ac-6343ef4047c5">
        <path
   style="stroke:none"
   d="M 1.109375,-2.515625 C 1.171875,-4 2.015625,-4.25 2.359375,-4.25 c 1.015625,0 1.125,1.34375 1.125,1.734375 z m 0,0.21875 h 2.78125 c 0.21875,0 0.25,0 0.25,-0.21875 0,-0.984375 -0.546875,-1.953125 -1.78125,-1.953125 -1.15625,0 -2.078125,1.03125 -2.078125,2.28125 0,1.328125 1.046875,2.296875 2.1875,2.296875 C 3.6875,0.109375 4.140625,-1 4.140625,-1.1875 4.140625,-1.28125 4.0625,-1.3125 4,-1.3125 c -0.078125,0 -0.109375,0.0625 -0.125,0.140625 -0.34375,1.03125 -1.25,1.03125 -1.34375,1.03125 -0.5,0 -0.890625,-0.296875 -1.125,-0.671875 -0.296875,-0.46875 -0.296875,-1.125 -0.296875,-1.484375 z m 0,0"
   id="id-17b3b273-d7f0-4ce0-b363-2fe29cb1e3cf" />
      </symbol>
      <symbol
   overflow="visible"
   id="id-ca431d0b-09db-4762-aafd-67dc01cef8b5">
        <path
   style="stroke:none"
   d="m 1.171875,-2.171875 c 0,-1.625 0.8125,-2.046875 1.34375,-2.046875 0.09375,0 0.71875,0.015625 1.0625,0.375 -0.40625,0.03125 -0.46875,0.328125 -0.46875,0.453125 0,0.265625 0.1875,0.453125 0.453125,0.453125 0.265625,0 0.46875,-0.15625 0.46875,-0.46875 0,-0.671875 -0.765625,-1.0625 -1.53125,-1.0625 -1.25,0 -2.15625,1.078125 -2.15625,2.3125 0,1.28125 0.984375,2.265625 2.140625,2.265625 1.328125,0 1.65625,-1.203125 1.65625,-1.296875 0,-0.09375 -0.109375,-0.09375 -0.140625,-0.09375 -0.078125,0 -0.109375,0.03125 -0.125,0.09375 -0.28125,0.921875 -0.9375,1.046875 -1.296875,1.046875 -0.53125,0 -1.40625,-0.421875 -1.40625,-2.03125 z m 0,0"
   id="id-a4a56df1-0c84-4e04-b5b5-cfab541a95ab" />
      </symbol>
      <symbol
   overflow="visible"
   id="id-8d9adda9-d3ee-4d7c-bead-4a7868483b53">
        <path
   style="stroke:none"
   d="m 1.71875,-3.984375 h 1.4375 v -0.3125 H 1.71875 V -6.125 h -0.25 c 0,0.8125 -0.296875,1.875 -1.28125,1.921875 v 0.21875 h 0.84375 v 2.75 c 0,1.21875 0.9375,1.34375 1.296875,1.34375 0.703125,0 0.984375,-0.703125 0.984375,-1.34375 v -0.5625 h -0.25 V -1.25 c 0,0.734375 -0.296875,1.109375 -0.671875,1.109375 -0.671875,0 -0.671875,-0.90625 -0.671875,-1.078125 z m 0,0"
   id="id-769086e0-a584-428d-bc81-7b40377d9a8c" />
      </symbol>
      <symbol
   overflow="visible"
   id="id-3532abc5-7a40-4cc7-8177-5c30ba6cc679">
        <path
   style="stroke:none"
   d="M 4.6875,-2.140625 C 4.6875,-3.40625 3.703125,-4.46875 2.5,-4.46875 c -1.25,0 -2.21875,1.09375 -2.21875,2.328125 0,1.296875 1.03125,2.25 2.203125,2.25 1.203125,0 2.203125,-0.984375 2.203125,-2.25 z m -2.1875,2 c -0.4375,0 -0.875,-0.203125 -1.140625,-0.671875 -0.25,-0.4375 -0.25,-1.046875 -0.25,-1.40625 0,-0.390625 0,-0.921875 0.234375,-1.359375 C 1.609375,-4.03125 2.078125,-4.25 2.484375,-4.25 c 0.4375,0 0.859375,0.21875 1.125,0.65625 0.265625,0.421875 0.265625,1 0.265625,1.375 0,0.359375 0,0.90625 -0.21875,1.34375 C 3.421875,-0.421875 2.984375,-0.140625 2.5,-0.140625 Z m 0,0"
   id="id-2990b4a5-794b-4751-b78e-ca4cbe71df66" />
      </symbol>
      <symbol
   overflow="visible"
   id="id-e31d7de7-9de9-476f-97c6-1121ba56ce6a">
        <path
   style="stroke:none"
   d="M 1.09375,-3.421875 V -0.75 c 0,0.4375 -0.109375,0.4375 -0.78125,0.4375 V 0 c 0.359375,-0.015625 0.859375,-0.03125 1.140625,-0.03125 0.25,0 0.765625,0.015625 1.109375,0.03125 v -0.3125 c -0.671875,0 -0.78125,0 -0.78125,-0.4375 V -2.59375 C 1.78125,-3.625 2.5,-4.1875 3.125,-4.1875 c 0.640625,0 0.75,0.53125 0.75,1.109375 V -0.75 c 0,0.4375 -0.109375,0.4375 -0.78125,0.4375 V 0 c 0.34375,-0.015625 0.859375,-0.03125 1.125,-0.03125 0.25,0 0.78125,0.015625 1.109375,0.03125 v -0.3125 c -0.515625,0 -0.765625,0 -0.765625,-0.296875 v -1.90625 c 0,-0.859375 0,-1.15625 -0.3125,-1.515625 -0.140625,-0.171875 -0.46875,-0.375 -1.046875,-0.375 C 2.46875,-4.40625 2,-3.984375 1.71875,-3.359375 V -4.40625 L 0.3125,-4.296875 v 0.3125 c 0.703125,0 0.78125,0.0625 0.78125,0.5625 z m 0,0"
   id="id-213f7ebd-a298-4f1a-a3ff-dc0a235ce046" />
      </symbol>
      <symbol
   overflow="visible"
   id="id-98646034-3453-461e-b8d5-68225108c38f">
        <path
   style="stroke:none"
   d="m 1.75,-4.296875 v -1.15625 c 0,-0.875 0.46875,-1.359375 0.90625,-1.359375 0.03125,0 0.1875,0 0.328125,0.078125 C 2.875,-6.703125 2.6875,-6.5625 2.6875,-6.3125 c 0,0.21875 0.15625,0.421875 0.4375,0.421875 0.28125,0 0.4375,-0.203125 0.4375,-0.4375 0,-0.375 -0.375,-0.703125 -0.90625,-0.703125 -0.6875,0 -1.546875,0.53125 -1.546875,1.59375 v 1.140625 h -0.78125 v 0.3125 h 0.78125 V -0.75 C 1.109375,-0.3125 1,-0.3125 0.34375,-0.3125 V 0 c 0.390625,-0.015625 0.859375,-0.03125 1.125,-0.03125 0.40625,0 0.875,0 1.265625,0.03125 V -0.3125 H 2.53125 c -0.734375,0 -0.75,-0.109375 -0.75,-0.46875 v -3.203125 h 1.125 v -0.3125 z m 0,0"
   id="id-b6617bc8-4d3a-48a9-96ac-86c473d15420" />
      </symbol>
      <symbol
   overflow="visible"
   id="id-d5126415-8f8c-42c6-8474-640174c8e06d">
        <path
   style="stroke:none"
   d="m 3.3125,-0.75 c 0.046875,0.390625 0.3125,0.8125 0.78125,0.8125 0.21875,0 0.828125,-0.140625 0.828125,-0.953125 v -0.5625 h -0.25 v 0.5625 c 0,0.578125 -0.25,0.640625 -0.359375,0.640625 -0.328125,0 -0.375,-0.453125 -0.375,-0.5 v -1.984375 c 0,-0.421875 0,-0.8125 -0.359375,-1.1875 C 3.1875,-4.3125 2.6875,-4.46875 2.21875,-4.46875 c -0.828125,0 -1.515625,0.46875 -1.515625,1.125 0,0.296875 0.203125,0.46875 0.46875,0.46875 0.28125,0 0.453125,-0.203125 0.453125,-0.453125 0,-0.125 -0.046875,-0.453125 -0.515625,-0.453125 C 1.390625,-4.140625 1.875,-4.25 2.1875,-4.25 c 0.5,0 1.0625,0.390625 1.0625,1.28125 v 0.359375 c -0.515625,0.03125 -1.203125,0.0625 -1.828125,0.359375 -0.75,0.34375 -1,0.859375 -1,1.296875 0,0.8125 0.96875,1.0625 1.59375,1.0625 0.65625,0 1.109375,-0.40625 1.296875,-0.859375 z M 3.25,-2.390625 v 1 c 0,0.9375 -0.71875,1.28125 -1.171875,1.28125 -0.484375,0 -0.890625,-0.34375 -0.890625,-0.84375 0,-0.546875 0.421875,-1.375 2.0625,-1.4375 z m 0,0"
   id="id-c995fe04-ec20-4441-b658-1296c5955e41" />
      </symbol>
      <symbol
   overflow="visible"
   id="id-cf5e561e-b097-4436-913d-c44f3581af21">
        <path
   style="stroke:none"
   d="m 1.09375,-0.75 c 0,0.4375 -0.109375,0.4375 -0.78125,0.4375 V 0 c 0.359375,-0.015625 0.859375,-0.03125 1.140625,-0.03125 0.25,0 0.765625,0.015625 1.109375,0.03125 v -0.3125 c -0.671875,0 -0.78125,0 -0.78125,-0.4375 V -2.59375 C 1.78125,-3.625 2.5,-4.1875 3.125,-4.1875 c 0.640625,0 0.75,0.53125 0.75,1.109375 V -0.75 c 0,0.4375 -0.109375,0.4375 -0.78125,0.4375 V 0 c 0.34375,-0.015625 0.859375,-0.03125 1.125,-0.03125 0.25,0 0.78125,0.015625 1.109375,0.03125 v -0.3125 c -0.515625,0 -0.765625,0 -0.765625,-0.296875 v -1.90625 c 0,-0.859375 0,-1.15625 -0.3125,-1.515625 -0.140625,-0.171875 -0.46875,-0.375 -1.046875,-0.375 -0.84375,0 -1.28125,0.59375 -1.453125,0.984375 v -3.5 L 0.3125,-6.8125 V -6.5 c 0.703125,0 0.78125,0.0625 0.78125,0.5625 z m 0,0"
   id="id-831f3352-7dd7-47dd-9b65-be91d2f0a815" />
      </symbol>
      <symbol
   overflow="visible"
   id="id-f21043dd-cf7c-4e0d-b2a5-cdc42665d1ae">
        <path
   style="stroke:none"
   d="m 2.71875,-4.453125 c 0,-0.265625 -0.171875,-0.53125 -0.53125,-0.53125 -0.203125,0 -0.34375,0.09375 -0.40625,0.15625 0,0.015625 -0.015625,0.03125 -0.03125,0.03125 -0.015625,0 -0.015625,-0.140625 -0.015625,-0.171875 0,-0.328125 0.0625,-1.046875 0.703125,-1.65625 C 2.546875,-6.75 2.546875,-6.765625 2.546875,-6.796875 2.546875,-6.875 2.5,-6.90625 2.453125,-6.90625 c -0.109375,0 -0.9375,0.75 -0.9375,1.9375 0,0.59375 0.234375,1.046875 0.671875,1.046875 0.34375,0 0.53125,-0.28125 0.53125,-0.53125 z m 1.921875,0 c 0,-0.265625 -0.171875,-0.53125 -0.53125,-0.53125 -0.1875,0 -0.328125,0.09375 -0.390625,0.15625 -0.015625,0.015625 -0.015625,0.03125 -0.03125,0.03125 -0.015625,0 -0.015625,-0.140625 -0.015625,-0.171875 0,-0.328125 0.0625,-1.046875 0.6875,-1.65625 0.125,-0.125 0.125,-0.140625 0.125,-0.171875 0,-0.078125 -0.046875,-0.109375 -0.09375,-0.109375 -0.109375,0 -0.9375,0.75 -0.9375,1.9375 0,0.59375 0.234375,1.046875 0.65625,1.046875 0.359375,0 0.53125,-0.28125 0.53125,-0.53125 z m 0,0"
   id="id-15e5392c-e591-4417-a720-29b7bf97f225" />
      </symbol>
      <symbol
   overflow="visible"
   id="id-91f829b6-fe29-45b8-8d8b-9c976d1e9bfb">
        <path
   style="stroke:none"
   d="m 6.171875,-3.34375 c 0.171875,-0.5 0.484375,-0.640625 0.84375,-0.640625 v -0.3125 C 6.78125,-4.28125 6.5,-4.265625 6.28125,-4.265625 c -0.296875,0 -0.734375,-0.015625 -0.921875,-0.03125 v 0.3125 c 0.359375,0 0.578125,0.1875 0.578125,0.46875 0,0.0625 0,0.09375 -0.0625,0.21875 L 4.96875,-0.75 3.984375,-3.53125 C 3.953125,-3.65625 3.9375,-3.671875 3.9375,-3.71875 c 0,-0.265625 0.390625,-0.265625 0.59375,-0.265625 v -0.3125 c -0.296875,0.015625 -0.796875,0.03125 -1.046875,0.03125 -0.296875,0 -0.578125,-0.015625 -0.875,-0.03125 v 0.3125 c 0.359375,0 0.515625,0.015625 0.625,0.140625 0.046875,0.0625 0.15625,0.359375 0.21875,0.546875 L 2.609375,-0.875 1.65625,-3.53125 C 1.609375,-3.65625 1.609375,-3.671875 1.609375,-3.71875 1.609375,-3.984375 2,-3.984375 2.1875,-3.984375 v -0.3125 c -0.296875,0.015625 -0.859375,0.03125 -1.078125,0.03125 -0.046875,0 -0.578125,-0.015625 -0.9375,-0.03125 v 0.3125 c 0.5,0 0.625,0.03125 0.75,0.34375 l 1.25,3.53125 C 2.21875,0.03125 2.25,0.109375 2.375,0.109375 c 0.140625,0 0.15625,-0.0625 0.203125,-0.203125 l 1.015625,-2.8125 1.015625,2.828125 c 0.03125,0.109375 0.0625,0.1875 0.203125,0.1875 0.125,0 0.15625,-0.09375 0.1875,-0.1875 z m 0,0"
   id="id-26535396-d821-4b49-9a29-b8c7d61dbc9f" />
      </symbol>
      <symbol
   overflow="visible"
   id="id-19a3d447-366b-4e3e-b611-96cc475289ce">
        <path
   style="stroke:none"
   d="M 1.765625,-6.921875 0.328125,-6.8125 V -6.5 c 0.703125,0 0.78125,0.0625 0.78125,0.5625 V -0.75 c 0,0.4375 -0.109375,0.4375 -0.78125,0.4375 V 0 C 0.65625,-0.015625 1.1875,-0.03125 1.4375,-0.03125 c 0.25,0 0.734375,0.015625 1.109375,0.03125 v -0.3125 c -0.671875,0 -0.78125,0 -0.78125,-0.4375 z m 0,0"
   id="id-dbc31e82-84b2-4b7e-99e0-93e54ac4f046" />
      </symbol>
      <symbol
   overflow="visible"
   id="id-851d4eda-bcff-44fc-82cf-a8f5e353a3f9">
        <path
   style="stroke:none"
   d="m 1.53125,-5.875 c 0,-0.59375 -0.25,-1.046875 -0.671875,-1.046875 -0.34375,0 -0.53125,0.265625 -0.53125,0.53125 0,0.265625 0.171875,0.53125 0.53125,0.53125 0.203125,0 0.34375,-0.109375 0.390625,-0.15625 0.015625,-0.03125 0.03125,-0.03125 0.03125,-0.03125 0.03125,0 0.03125,0.140625 0.03125,0.171875 0,0.328125 -0.078125,1.046875 -0.703125,1.65625 -0.125,0.125 -0.125,0.140625 -0.125,0.171875 0,0.0625 0.046875,0.109375 0.109375,0.109375 0.109375,0 0.9375,-0.75 0.9375,-1.9375 z m 1.921875,0 c 0,-0.59375 -0.234375,-1.046875 -0.65625,-1.046875 -0.359375,0 -0.53125,0.265625 -0.53125,0.53125 0,0.265625 0.171875,0.53125 0.53125,0.53125 0.1875,0 0.328125,-0.109375 0.390625,-0.15625 0.015625,-0.03125 0.015625,-0.03125 0.03125,-0.03125 0.015625,0 0.015625,0.140625 0.015625,0.171875 0,0.328125 -0.0625,1.046875 -0.6875,1.65625 -0.125,0.125 -0.125,0.140625 -0.125,0.171875 0,0.0625 0.046875,0.109375 0.09375,0.109375 0.109375,0 0.9375,-0.75 0.9375,-1.9375 z m 0,0"
   id="id-0a08f9e5-dd4c-4147-8a60-02a14ea9a535" />
      </symbol>
    </g>
  </defs>
  <g
   id="id-f99344c1-2e59-4f38-a536-cc1a24cca406"
   transform="translate(-275.173, -127.734)">
    <g
   style="fill:#000000;fill-opacity:1"
   id="id-f0a6879f-7400-4754-a689-3af2325f15ce">
      <g
   transform="translate(279.804, 134.765)"
   id="g271"><path
   style="stroke:none"
   d="M 0.34375,-6.8125 V -6.5 h 0.25 c 0.765625,0 0.78125,0.109375 0.78125,0.46875 v 5.25 c 0,0.359375 -0.015625,0.46875 -0.78125,0.46875 h -0.25 V 0 H 4 C 5.671875,0 7.046875,-1.46875 7.046875,-3.34375 7.046875,-5.25 5.703125,-6.8125 4,-6.8125 Z m 2.375,6.5 C 2.25,-0.3125 2.234375,-0.375 2.234375,-0.703125 V -6.09375 C 2.234375,-6.4375 2.25,-6.5 2.71875,-6.5 h 1 c 0.625,0 1.3125,0.21875 1.8125,0.921875 0.4375,0.59375 0.515625,1.453125 0.515625,2.234375 0,1.09375 -0.1875,1.703125 -0.546875,2.1875 -0.203125,0.265625 -0.765625,0.84375 -1.765625,0.84375 z m 0,0"
   id="id-24eb9e9b-f8d3-4441-808a-bb3aaaf0f2ba" />
      </g><g
   transform="translate(287.414, 134.765)"
   id="g272"><path
   style="stroke:none"
   d="M 1.765625,-4.40625 0.375,-4.296875 v 0.3125 c 0.640625,0 0.734375,0.0625 0.734375,0.546875 V -0.75 c 0,0.4375 -0.109375,0.4375 -0.78125,0.4375 V 0 C 0.640625,-0.015625 1.1875,-0.03125 1.421875,-0.03125 1.78125,-0.03125 2.125,-0.015625 2.46875,0 v -0.3125 c -0.671875,0 -0.703125,-0.046875 -0.703125,-0.4375 z m 0.03125,-1.734375 c 0,-0.3125 -0.234375,-0.53125 -0.515625,-0.53125 -0.3125,0 -0.53125,0.265625 -0.53125,0.53125 0,0.265625 0.21875,0.53125 0.53125,0.53125 0.28125,0 0.515625,-0.21875 0.515625,-0.53125 z m 0,0"
   id="id-f43ff1d4-ef6c-4193-b3e5-9e45bbd30f6f" />
      </g><g
   transform="translate(290.182, 134.765)"
   id="g273"><path
   style="stroke:none"
   d="M 1.671875,-3.3125 V -4.40625 L 0.28125,-4.296875 v 0.3125 c 0.703125,0 0.78125,0.0625 0.78125,0.5625 V -0.75 c 0,0.4375 -0.109375,0.4375 -0.78125,0.4375 V 0 c 0.390625,-0.015625 0.859375,-0.03125 1.140625,-0.03125 0.390625,0 0.859375,0 1.265625,0.03125 V -0.3125 H 2.46875 c -0.734375,0 -0.75,-0.109375 -0.75,-0.46875 V -2.3125 c 0,-0.984375 0.421875,-1.875 1.171875,-1.875 0.0625,0 0.09375,0 0.109375,0.015625 -0.03125,0 -0.234375,0.125 -0.234375,0.390625 0,0.265625 0.21875,0.421875 0.4375,0.421875 0.171875,0 0.421875,-0.125 0.421875,-0.4375 0,-0.3125 -0.3125,-0.609375 -0.734375,-0.609375 -0.734375,0 -1.09375,0.671875 -1.21875,1.09375 z m 0,0"
   id="id-2060869b-7760-4d1f-be3b-f8e5ae9e7250" />
      </g><g
   transform="translate(294.084, 134.765)"
   id="g274"><path
   style="stroke:none"
   d="M 1.109375,-2.515625 C 1.171875,-4 2.015625,-4.25 2.359375,-4.25 c 1.015625,0 1.125,1.34375 1.125,1.734375 z m 0,0.21875 h 2.78125 c 0.21875,0 0.25,0 0.25,-0.21875 0,-0.984375 -0.546875,-1.953125 -1.78125,-1.953125 -1.15625,0 -2.078125,1.03125 -2.078125,2.28125 0,1.328125 1.046875,2.296875 2.1875,2.296875 C 3.6875,0.109375 4.140625,-1 4.140625,-1.1875 4.140625,-1.28125 4.0625,-1.3125 4,-1.3125 c -0.078125,0 -0.109375,0.0625 -0.125,0.140625 -0.34375,1.03125 -1.25,1.03125 -1.34375,1.03125 -0.5,0 -0.890625,-0.296875 -1.125,-0.671875 -0.296875,-0.46875 -0.296875,-1.125 -0.296875,-1.484375 z m 0,0"
   id="id-f5a06dee-b552-44fa-8557-0417da9602e8" />
      </g><g
   transform="translate(298.512, 134.765)"
   id="g275"><path
   style="stroke:none"
   d="m 1.171875,-2.171875 c 0,-1.625 0.8125,-2.046875 1.34375,-2.046875 0.09375,0 0.71875,0.015625 1.0625,0.375 -0.40625,0.03125 -0.46875,0.328125 -0.46875,0.453125 0,0.265625 0.1875,0.453125 0.453125,0.453125 0.265625,0 0.46875,-0.15625 0.46875,-0.46875 0,-0.671875 -0.765625,-1.0625 -1.53125,-1.0625 -1.25,0 -2.15625,1.078125 -2.15625,2.3125 0,1.28125 0.984375,2.265625 2.140625,2.265625 1.328125,0 1.65625,-1.203125 1.65625,-1.296875 0,-0.09375 -0.109375,-0.09375 -0.140625,-0.09375 -0.078125,0 -0.109375,0.03125 -0.125,0.09375 -0.28125,0.921875 -0.9375,1.046875 -1.296875,1.046875 -0.53125,0 -1.40625,-0.421875 -1.40625,-2.03125 z m 0,0"
   id="id-b272c3d9-3978-4090-a495-d7029d312df9" />
      </g><g
   transform="translate(302.939, 134.765)"
   id="g276"><path
   style="stroke:none"
   d="m 1.71875,-3.984375 h 1.4375 v -0.3125 H 1.71875 V -6.125 h -0.25 c 0,0.8125 -0.296875,1.875 -1.28125,1.921875 v 0.21875 h 0.84375 v 2.75 c 0,1.21875 0.9375,1.34375 1.296875,1.34375 0.703125,0 0.984375,-0.703125 0.984375,-1.34375 v -0.5625 h -0.25 V -1.25 c 0,0.734375 -0.296875,1.109375 -0.671875,1.109375 -0.671875,0 -0.671875,-0.90625 -0.671875,-1.078125 z m 0,0"
   id="id-58a8a087-de8c-406e-b380-8d85f15afe2c" />
      </g><g
   transform="translate(306.814, 134.765)"
   id="g277"><path
   style="stroke:none"
   d="M 1.765625,-4.40625 0.375,-4.296875 v 0.3125 c 0.640625,0 0.734375,0.0625 0.734375,0.546875 V -0.75 c 0,0.4375 -0.109375,0.4375 -0.78125,0.4375 V 0 C 0.640625,-0.015625 1.1875,-0.03125 1.421875,-0.03125 1.78125,-0.03125 2.125,-0.015625 2.46875,0 v -0.3125 c -0.671875,0 -0.703125,-0.046875 -0.703125,-0.4375 z m 0.03125,-1.734375 c 0,-0.3125 -0.234375,-0.53125 -0.515625,-0.53125 -0.3125,0 -0.53125,0.265625 -0.53125,0.53125 0,0.265625 0.21875,0.53125 0.53125,0.53125 0.28125,0 0.515625,-0.21875 0.515625,-0.53125 z m 0,0"
   id="id-703ea11a-771c-450c-aa5c-887218eeb198" />
      </g><g
   transform="translate(309.581, 134.765)"
   id="g278"><path
   style="stroke:none"
   d="M 4.6875,-2.140625 C 4.6875,-3.40625 3.703125,-4.46875 2.5,-4.46875 c -1.25,0 -2.21875,1.09375 -2.21875,2.328125 0,1.296875 1.03125,2.25 2.203125,2.25 1.203125,0 2.203125,-0.984375 2.203125,-2.25 z m -2.1875,2 c -0.4375,0 -0.875,-0.203125 -1.140625,-0.671875 -0.25,-0.4375 -0.25,-1.046875 -0.25,-1.40625 0,-0.390625 0,-0.921875 0.234375,-1.359375 C 1.609375,-4.03125 2.078125,-4.25 2.484375,-4.25 c 0.4375,0 0.859375,0.21875 1.125,0.65625 0.265625,0.421875 0.265625,1 0.265625,1.375 0,0.359375 0,0.90625 -0.21875,1.34375 C 3.421875,-0.421875 2.984375,-0.140625 2.5,-0.140625 Z m 0,0"
   id="id-b326c653-578a-467f-9421-0a1ffc65296c" />
      </g><g
   transform="translate(314.562, 134.765)"
   id="g279"><path
   style="stroke:none"
   d="M 1.09375,-3.421875 V -0.75 c 0,0.4375 -0.109375,0.4375 -0.78125,0.4375 V 0 c 0.359375,-0.015625 0.859375,-0.03125 1.140625,-0.03125 0.25,0 0.765625,0.015625 1.109375,0.03125 v -0.3125 c -0.671875,0 -0.78125,0 -0.78125,-0.4375 V -2.59375 C 1.78125,-3.625 2.5,-4.1875 3.125,-4.1875 c 0.640625,0 0.75,0.53125 0.75,1.109375 V -0.75 c 0,0.4375 -0.109375,0.4375 -0.78125,0.4375 V 0 c 0.34375,-0.015625 0.859375,-0.03125 1.125,-0.03125 0.25,0 0.78125,0.015625 1.109375,0.03125 v -0.3125 c -0.515625,0 -0.765625,0 -0.765625,-0.296875 v -1.90625 c 0,-0.859375 0,-1.15625 -0.3125,-1.515625 -0.140625,-0.171875 -0.46875,-0.375 -1.046875,-0.375 C 2.46875,-4.40625 2,-3.984375 1.71875,-3.359375 V -4.40625 L 0.3125,-4.296875 v 0.3125 c 0.703125,0 0.78125,0.0625 0.78125,0.5625 z m 0,0"
   id="id-8fc4e290-7e27-4620-b940-02c1c1b3e13f" />
      </g></g>
    <g
   style="fill:#000000;fill-opacity:1"
   id="id-fcad8908-8ab6-49ce-8204-77a42cb5831a">
      <g
   transform="translate(323.415, 134.765)"
   id="g280"><path
   style="stroke:none"
   d="M 4.6875,-2.140625 C 4.6875,-3.40625 3.703125,-4.46875 2.5,-4.46875 c -1.25,0 -2.21875,1.09375 -2.21875,2.328125 0,1.296875 1.03125,2.25 2.203125,2.25 1.203125,0 2.203125,-0.984375 2.203125,-2.25 z m -2.1875,2 c -0.4375,0 -0.875,-0.203125 -1.140625,-0.671875 -0.25,-0.4375 -0.25,-1.046875 -0.25,-1.40625 0,-0.390625 0,-0.921875 0.234375,-1.359375 C 1.609375,-4.03125 2.078125,-4.25 2.484375,-4.25 c 0.4375,0 0.859375,0.21875 1.125,0.65625 0.265625,0.421875 0.265625,1 0.265625,1.375 0,0.359375 0,0.90625 -0.21875,1.34375 C 3.421875,-0.421875 2.984375,-0.140625 2.5,-0.140625 Z m 0,0"
   id="id-ab7c3e4f-0109-4027-a96a-01c1d1eaabc0" />
      </g><g
   transform="translate(328.397, 134.765)"
   id="g281"><path
   style="stroke:none"
   d="m 1.75,-4.296875 v -1.15625 c 0,-0.875 0.46875,-1.359375 0.90625,-1.359375 0.03125,0 0.1875,0 0.328125,0.078125 C 2.875,-6.703125 2.6875,-6.5625 2.6875,-6.3125 c 0,0.21875 0.15625,0.421875 0.4375,0.421875 0.28125,0 0.4375,-0.203125 0.4375,-0.4375 0,-0.375 -0.375,-0.703125 -0.90625,-0.703125 -0.6875,0 -1.546875,0.53125 -1.546875,1.59375 v 1.140625 h -0.78125 v 0.3125 h 0.78125 V -0.75 C 1.109375,-0.3125 1,-0.3125 0.34375,-0.3125 V 0 c 0.390625,-0.015625 0.859375,-0.03125 1.125,-0.03125 0.40625,0 0.875,0 1.265625,0.03125 V -0.3125 H 2.53125 c -0.734375,0 -0.75,-0.109375 -0.75,-0.46875 v -3.203125 h 1.125 v -0.3125 z m 0,0"
   id="id-b1ebeb25-04e9-4fd0-9a2b-35c888e63ad6" />
      </g></g>
    <g
   style="fill:#000000;fill-opacity:1"
   id="id-55eafb09-2c18-47c5-8a37-cdd8eba425af">
      <g
   transform="translate(274.892, 146.72)"
   id="g282"><path
   style="stroke:none"
   d="M 1.671875,-3.3125 V -4.40625 L 0.28125,-4.296875 v 0.3125 c 0.703125,0 0.78125,0.0625 0.78125,0.5625 V -0.75 c 0,0.4375 -0.109375,0.4375 -0.78125,0.4375 V 0 c 0.390625,-0.015625 0.859375,-0.03125 1.140625,-0.03125 0.390625,0 0.859375,0 1.265625,0.03125 V -0.3125 H 2.46875 c -0.734375,0 -0.75,-0.109375 -0.75,-0.46875 V -2.3125 c 0,-0.984375 0.421875,-1.875 1.171875,-1.875 0.0625,0 0.09375,0 0.109375,0.015625 -0.03125,0 -0.234375,0.125 -0.234375,0.390625 0,0.265625 0.21875,0.421875 0.4375,0.421875 0.171875,0 0.421875,-0.125 0.421875,-0.4375 0,-0.3125 -0.3125,-0.609375 -0.734375,-0.609375 -0.734375,0 -1.09375,0.671875 -1.21875,1.09375 z m 0,0"
   id="id-5d2a60a4-7128-4903-b4f2-da5654610e50" />
      </g><g
   transform="translate(278.794, 146.72)"
   id="g283"><path
   style="stroke:none"
   d="m 3.3125,-0.75 c 0.046875,0.390625 0.3125,0.8125 0.78125,0.8125 0.21875,0 0.828125,-0.140625 0.828125,-0.953125 v -0.5625 h -0.25 v 0.5625 c 0,0.578125 -0.25,0.640625 -0.359375,0.640625 -0.328125,0 -0.375,-0.453125 -0.375,-0.5 v -1.984375 c 0,-0.421875 0,-0.8125 -0.359375,-1.1875 C 3.1875,-4.3125 2.6875,-4.46875 2.21875,-4.46875 c -0.828125,0 -1.515625,0.46875 -1.515625,1.125 0,0.296875 0.203125,0.46875 0.46875,0.46875 0.28125,0 0.453125,-0.203125 0.453125,-0.453125 0,-0.125 -0.046875,-0.453125 -0.515625,-0.453125 C 1.390625,-4.140625 1.875,-4.25 2.1875,-4.25 c 0.5,0 1.0625,0.390625 1.0625,1.28125 v 0.359375 c -0.515625,0.03125 -1.203125,0.0625 -1.828125,0.359375 -0.75,0.34375 -1,0.859375 -1,1.296875 0,0.8125 0.96875,1.0625 1.59375,1.0625 0.65625,0 1.109375,-0.40625 1.296875,-0.859375 z M 3.25,-2.390625 v 1 c 0,0.9375 -0.71875,1.28125 -1.171875,1.28125 -0.484375,0 -0.890625,-0.34375 -0.890625,-0.84375 0,-0.546875 0.421875,-1.375 2.0625,-1.4375 z m 0,0"
   id="id-5a93d121-0739-4f08-892a-0ed850f23ab5" />
      </g><g
   transform="translate(283.776, 146.72)"
   id="g284"><path
   style="stroke:none"
   d="m 1.71875,-3.984375 h 1.4375 v -0.3125 H 1.71875 V -6.125 h -0.25 c 0,0.8125 -0.296875,1.875 -1.28125,1.921875 v 0.21875 h 0.84375 v 2.75 c 0,1.21875 0.9375,1.34375 1.296875,1.34375 0.703125,0 0.984375,-0.703125 0.984375,-1.34375 v -0.5625 h -0.25 V -1.25 c 0,0.734375 -0.296875,1.109375 -0.671875,1.109375 -0.671875,0 -0.671875,-0.90625 -0.671875,-1.078125 z m 0,0"
   id="id-f3ee5523-55e6-4fdf-a753-902b74bd273c" />
      </g><g
   transform="translate(287.65, 146.72)"
   id="g285"><path
   style="stroke:none"
   d="m 1.171875,-2.171875 c 0,-1.625 0.8125,-2.046875 1.34375,-2.046875 0.09375,0 0.71875,0.015625 1.0625,0.375 -0.40625,0.03125 -0.46875,0.328125 -0.46875,0.453125 0,0.265625 0.1875,0.453125 0.453125,0.453125 0.265625,0 0.46875,-0.15625 0.46875,-0.46875 0,-0.671875 -0.765625,-1.0625 -1.53125,-1.0625 -1.25,0 -2.15625,1.078125 -2.15625,2.3125 0,1.28125 0.984375,2.265625 2.140625,2.265625 1.328125,0 1.65625,-1.203125 1.65625,-1.296875 0,-0.09375 -0.109375,-0.09375 -0.140625,-0.09375 -0.078125,0 -0.109375,0.03125 -0.125,0.09375 -0.28125,0.921875 -0.9375,1.046875 -1.296875,1.046875 -0.53125,0 -1.40625,-0.421875 -1.40625,-2.03125 z m 0,0"
   id="id-cbdf328d-bcda-4e84-be16-a707f0405df7" />
      </g></g>
    <g
   style="fill:#000000;fill-opacity:1"
   id="id-f0547c2b-f1f4-4884-b6fd-8b1a18bf8b9a">
      <g
   transform="translate(291.799, 146.72)"
   id="g286"><path
   style="stroke:none"
   d="m 1.09375,-0.75 c 0,0.4375 -0.109375,0.4375 -0.78125,0.4375 V 0 c 0.359375,-0.015625 0.859375,-0.03125 1.140625,-0.03125 0.25,0 0.765625,0.015625 1.109375,0.03125 v -0.3125 c -0.671875,0 -0.78125,0 -0.78125,-0.4375 V -2.59375 C 1.78125,-3.625 2.5,-4.1875 3.125,-4.1875 c 0.640625,0 0.75,0.53125 0.75,1.109375 V -0.75 c 0,0.4375 -0.109375,0.4375 -0.78125,0.4375 V 0 c 0.34375,-0.015625 0.859375,-0.03125 1.125,-0.03125 0.25,0 0.78125,0.015625 1.109375,0.03125 v -0.3125 c -0.515625,0 -0.765625,0 -0.765625,-0.296875 v -1.90625 c 0,-0.859375 0,-1.15625 -0.3125,-1.515625 -0.140625,-0.171875 -0.46875,-0.375 -1.046875,-0.375 -0.84375,0 -1.28125,0.59375 -1.453125,0.984375 v -3.5 L 0.3125,-6.8125 V -6.5 c 0.703125,0 0.78125,0.0625 0.78125,0.5625 z m 0,0"
   id="id-4e4a5e24-58f0-4c4d-8683-51fc1a218acb" />
      </g><g
   transform="translate(297.334, 146.72)"
   id="g287"><path
   style="stroke:none"
   d="M 1.109375,-2.515625 C 1.171875,-4 2.015625,-4.25 2.359375,-4.25 c 1.015625,0 1.125,1.34375 1.125,1.734375 z m 0,0.21875 h 2.78125 c 0.21875,0 0.25,0 0.25,-0.21875 0,-0.984375 -0.546875,-1.953125 -1.78125,-1.953125 -1.15625,0 -2.078125,1.03125 -2.078125,2.28125 0,1.328125 1.046875,2.296875 2.1875,2.296875 C 3.6875,0.109375 4.140625,-1 4.140625,-1.1875 4.140625,-1.28125 4.0625,-1.3125 4,-1.3125 c -0.078125,0 -0.109375,0.0625 -0.125,0.140625 -0.34375,1.03125 -1.25,1.03125 -1.34375,1.03125 -0.5,0 -0.890625,-0.296875 -1.125,-0.671875 -0.296875,-0.46875 -0.296875,-1.125 -0.296875,-1.484375 z m 0,0"
   id="id-bcfd11f7-5a34-47e6-a525-1de5257e21c8" />
      </g><g
   transform="translate(301.761, 146.72)"
   id="g288"><path
   style="stroke:none"
   d="m 1.71875,-3.984375 h 1.4375 v -0.3125 H 1.71875 V -6.125 h -0.25 c 0,0.8125 -0.296875,1.875 -1.28125,1.921875 v 0.21875 h 0.84375 v 2.75 c 0,1.21875 0.9375,1.34375 1.296875,1.34375 0.703125,0 0.984375,-0.703125 0.984375,-1.34375 v -0.5625 h -0.25 V -1.25 c 0,0.734375 -0.296875,1.109375 -0.671875,1.109375 -0.671875,0 -0.671875,-0.90625 -0.671875,-1.078125 z m 0,0"
   id="id-c71a2995-e723-4b50-80bc-5b3f4f521cae" />
      </g></g>
    <g
   style="fill:#000000;fill-opacity:1"
   id="id-3d0bc89d-1b62-48a2-b78d-142128b173f5">
      <g
   transform="translate(308.963, 146.72)"
   id="g289"><path
   style="stroke:none"
   d="m 2.71875,-4.453125 c 0,-0.265625 -0.171875,-0.53125 -0.53125,-0.53125 -0.203125,0 -0.34375,0.09375 -0.40625,0.15625 0,0.015625 -0.015625,0.03125 -0.03125,0.03125 -0.015625,0 -0.015625,-0.140625 -0.015625,-0.171875 0,-0.328125 0.0625,-1.046875 0.703125,-1.65625 C 2.546875,-6.75 2.546875,-6.765625 2.546875,-6.796875 2.546875,-6.875 2.5,-6.90625 2.453125,-6.90625 c -0.109375,0 -0.9375,0.75 -0.9375,1.9375 0,0.59375 0.234375,1.046875 0.671875,1.046875 0.34375,0 0.53125,-0.28125 0.53125,-0.53125 z m 1.921875,0 c 0,-0.265625 -0.171875,-0.53125 -0.53125,-0.53125 -0.1875,0 -0.328125,0.09375 -0.390625,0.15625 -0.015625,0.015625 -0.015625,0.03125 -0.03125,0.03125 -0.015625,0 -0.015625,-0.140625 -0.015625,-0.171875 0,-0.328125 0.0625,-1.046875 0.6875,-1.65625 0.125,-0.125 0.125,-0.140625 0.125,-0.171875 0,-0.078125 -0.046875,-0.109375 -0.09375,-0.109375 -0.109375,0 -0.9375,0.75 -0.9375,1.9375 0,0.59375 0.234375,1.046875 0.65625,1.046875 0.359375,0 0.53125,-0.28125 0.53125,-0.53125 z m 0,0"
   id="id-2b58b70d-1eb9-45eb-a7a6-c2fc1b126774" />
      </g><g
   transform="translate(313.944, 146.72)"
   id="g290"><path
   style="stroke:none"
   d="m 6.171875,-3.34375 c 0.171875,-0.5 0.484375,-0.640625 0.84375,-0.640625 v -0.3125 C 6.78125,-4.28125 6.5,-4.265625 6.28125,-4.265625 c -0.296875,0 -0.734375,-0.015625 -0.921875,-0.03125 v 0.3125 c 0.359375,0 0.578125,0.1875 0.578125,0.46875 0,0.0625 0,0.09375 -0.0625,0.21875 L 4.96875,-0.75 3.984375,-3.53125 C 3.953125,-3.65625 3.9375,-3.671875 3.9375,-3.71875 c 0,-0.265625 0.390625,-0.265625 0.59375,-0.265625 v -0.3125 c -0.296875,0.015625 -0.796875,0.03125 -1.046875,0.03125 -0.296875,0 -0.578125,-0.015625 -0.875,-0.03125 v 0.3125 c 0.359375,0 0.515625,0.015625 0.625,0.140625 0.046875,0.0625 0.15625,0.359375 0.21875,0.546875 L 2.609375,-0.875 1.65625,-3.53125 C 1.609375,-3.65625 1.609375,-3.671875 1.609375,-3.71875 1.609375,-3.984375 2,-3.984375 2.1875,-3.984375 v -0.3125 c -0.296875,0.015625 -0.859375,0.03125 -1.078125,0.03125 -0.046875,0 -0.578125,-0.015625 -0.9375,-0.03125 v 0.3125 c 0.5,0 0.625,0.03125 0.75,0.34375 l 1.25,3.53125 C 2.21875,0.03125 2.25,0.109375 2.375,0.109375 c 0.140625,0 0.15625,-0.0625 0.203125,-0.203125 l 1.015625,-2.8125 1.015625,2.828125 c 0.03125,0.109375 0.0625,0.1875 0.203125,0.1875 0.125,0 0.15625,-0.09375 0.1875,-0.1875 z m 0,0"
   id="id-67a228fd-1ee5-47c4-8ba8-604b5a5abd68" />
      </g></g>
    <g
   style="fill:#000000;fill-opacity:1"
   id="id-78d7f3fd-5261-4b71-b8a5-e8cd82ca93bc">
      <g
   transform="translate(320.86, 146.72)"
   id="g291"><path
   style="stroke:none"
   d="m 3.3125,-0.75 c 0.046875,0.390625 0.3125,0.8125 0.78125,0.8125 0.21875,0 0.828125,-0.140625 0.828125,-0.953125 v -0.5625 h -0.25 v 0.5625 c 0,0.578125 -0.25,0.640625 -0.359375,0.640625 -0.328125,0 -0.375,-0.453125 -0.375,-0.5 v -1.984375 c 0,-0.421875 0,-0.8125 -0.359375,-1.1875 C 3.1875,-4.3125 2.6875,-4.46875 2.21875,-4.46875 c -0.828125,0 -1.515625,0.46875 -1.515625,1.125 0,0.296875 0.203125,0.46875 0.46875,0.46875 0.28125,0 0.453125,-0.203125 0.453125,-0.453125 0,-0.125 -0.046875,-0.453125 -0.515625,-0.453125 C 1.390625,-4.140625 1.875,-4.25 2.1875,-4.25 c 0.5,0 1.0625,0.390625 1.0625,1.28125 v 0.359375 c -0.515625,0.03125 -1.203125,0.0625 -1.828125,0.359375 -0.75,0.34375 -1,0.859375 -1,1.296875 0,0.8125 0.96875,1.0625 1.59375,1.0625 0.65625,0 1.109375,-0.40625 1.296875,-0.859375 z M 3.25,-2.390625 v 1 c 0,0.9375 -0.71875,1.28125 -1.171875,1.28125 -0.484375,0 -0.890625,-0.34375 -0.890625,-0.84375 0,-0.546875 0.421875,-1.375 2.0625,-1.4375 z m 0,0"
   id="id-c220f0ae-5995-47b3-bf72-f97928cbdc48" />
      </g><g
   transform="translate(325.842, 146.72)"
   id="g292"><path
   style="stroke:none"
   d="M 1.765625,-6.921875 0.328125,-6.8125 V -6.5 c 0.703125,0 0.78125,0.0625 0.78125,0.5625 V -0.75 c 0,0.4375 -0.109375,0.4375 -0.78125,0.4375 V 0 C 0.65625,-0.015625 1.1875,-0.03125 1.4375,-0.03125 c 0.25,0 0.734375,0.015625 1.109375,0.03125 v -0.3125 c -0.671875,0 -0.78125,0 -0.78125,-0.4375 z m 0,0"
   id="id-3080aa6f-b8ac-418d-81fb-cefcc4c17568" />
      </g><g
   transform="translate(328.609, 146.72)"
   id="g293"><path
   style="stroke:none"
   d="M 1.765625,-6.921875 0.328125,-6.8125 V -6.5 c 0.703125,0 0.78125,0.0625 0.78125,0.5625 V -0.75 c 0,0.4375 -0.109375,0.4375 -0.78125,0.4375 V 0 C 0.65625,-0.015625 1.1875,-0.03125 1.4375,-0.03125 c 0.25,0 0.734375,0.015625 1.109375,0.03125 v -0.3125 c -0.671875,0 -0.78125,0 -0.78125,-0.4375 z m 0,0"
   id="id-c2e602d2-cf4a-4651-9d29-f35d9984eaac" />
      </g><g
   transform="translate(331.377, 146.72)"
   id="g294"><path
   style="stroke:none"
   d="m 1.53125,-5.875 c 0,-0.59375 -0.25,-1.046875 -0.671875,-1.046875 -0.34375,0 -0.53125,0.265625 -0.53125,0.53125 0,0.265625 0.171875,0.53125 0.53125,0.53125 0.203125,0 0.34375,-0.109375 0.390625,-0.15625 0.015625,-0.03125 0.03125,-0.03125 0.03125,-0.03125 0.03125,0 0.03125,0.140625 0.03125,0.171875 0,0.328125 -0.078125,1.046875 -0.703125,1.65625 -0.125,0.125 -0.125,0.140625 -0.125,0.171875 0,0.0625 0.046875,0.109375 0.109375,0.109375 0.109375,0 0.9375,-0.75 0.9375,-1.9375 z m 1.921875,0 c 0,-0.59375 -0.234375,-1.046875 -0.65625,-1.046875 -0.359375,0 -0.53125,0.265625 -0.53125,0.53125 0,0.265625 0.171875,0.53125 0.53125,0.53125 0.1875,0 0.328125,-0.109375 0.390625,-0.15625 0.015625,-0.03125 0.015625,-0.03125 0.03125,-0.03125 0.015625,0 0.015625,0.140625 0.015625,0.171875 0,0.328125 -0.0625,1.046875 -0.6875,1.65625 -0.125,0.125 -0.125,0.140625 -0.125,0.171875 0,0.0625 0.046875,0.109375 0.09375,0.109375 0.109375,0 0.9375,-0.75 0.9375,-1.9375 z m 0,0"
   id="id-c8f420bb-d848-49b4-b0e3-174c64ab8117" />
      </g></g>
  </g>
</g></g></svg>
